<?xml version="1.0" encoding="UTF-8" standalone="no"?>
<!-- Created with Inkscape (http://www.inkscape.org/) -->

<svg
   width="90.759521mm"
   height="67.957619mm"
   viewBox="0 0 90.759533 67.957618"
   version="1.1"
   id="svg5"
   xml:space="preserve"
   inkscape:version="1.2.2 (732a01da63, 2022-12-09)"
   sodipodi:docname="drawing.svg"
   xmlns:inkscape="http://www.inkscape.org/namespaces/inkscape"
   xmlns:sodipodi="http://sodipodi.sourceforge.net/DTD/sodipodi-0.dtd"
   xmlns="http://www.w3.org/2000/svg"
   xmlns:svg="http://www.w3.org/2000/svg"><sodipodi:namedview
     id="namedview7"
     pagecolor="#ffffff"
     bordercolor="#000000"
     borderopacity="0.25"
     inkscape:showpageshadow="2"
     inkscape:pageopacity="0.0"
     inkscape:pagecheckerboard="0"
     inkscape:deskcolor="#d1d1d1"
     inkscape:document-units="mm"
     showgrid="false"
     showguides="true"
     inkscape:zoom="1.6819304"
     inkscape:cx="254.76678"
     inkscape:cy="96.912451"
     inkscape:window-width="1680"
     inkscape:window-height="979"
     inkscape:window-x="-8"
     inkscape:window-y="-8"
     inkscape:window-maximized="1"
     inkscape:current-layer="layer1" /><defs
     id="defs2"><inkscape:path-effect
       effect="powerstroke"
       id="path-effect911"
       is_visible="true"
       lpeversion="1"
       offset_points="0.58703391,0.20856466"
       not_jump="true"
       sort_points="true"
       interpolator_type="CentripetalCatmullRom"
       interpolator_beta="0.75"
       start_linecap_type="round"
       linejoin_type="spiro"
       miter_limit="4"
       scale_width="1"
       end_linecap_type="round" /><inkscape:path-effect
       effect="simplify"
       id="path-effect909"
       is_visible="true"
       lpeversion="1"
       steps="1"
       threshold="0.0047745358"
       smooth_angles="0"
       helper_size="0"
       simplify_individual_paths="false"
       simplify_just_coalesce="false"
       step="1" /><clipPath
       clipPathUnits="userSpaceOnUse"
       id="clipPath988"><path
         id="path990"
         style="fill:#ff0000;fill-opacity:1;fill-rule:nonzero;stroke:none;stroke-width:7.5"
         d="M 909.99833,1219.8714 V 694.35875 H 2097.4005 v 525.51265 z" /></clipPath><clipPath
       clipPathUnits="userSpaceOnUse"
       id="clipPath1097"><path
         id="path1099"
         style="fill:#ff0000;fill-opacity:1;fill-rule:nonzero;stroke:none;stroke-width:7.5"
         d="m 1649.9933,2155.9065 v -82.0166 h 81.46 c 0.1598,0.2168 0.4815,0.381 0.9668,0.381 h 0.3517 0.7911 1.0254 c 0.3772,0 0.7506,-3e-4 1.1279,0 0.4545,0 0.9079,-6e-4 1.3623,0 0.4042,5e-4 0.8116,0.01 1.2157,0.015 0.3653,0 0.7193,0 1.0841,0.015 0.1417,0.01 0.2827,0.015 0.4245,0.03 v 81.5772 z" /></clipPath><clipPath
       clipPathUnits="userSpaceOnUse"
       id="clipPath1127"><path
         id="path1129"
         style="fill:#ff0000;fill-opacity:1;fill-rule:nonzero;stroke:none;stroke-width:0.264583"
         d="m 99.170691,117.03937 v 0.50126 h 0.03772 c 0.03379,-10e-6 0.06752,1e-5 0.101286,0 -0.007,-0.0149 0.0054,-0.0341 0.03669,-0.0341 h 0.01241 0.0279 0.03617 c 0.01331,0 0.02648,1e-5 0.03979,0 0.01603,0 0.03203,2e-5 0.04806,0 0.01426,-2e-5 0.02863,-2.6e-4 0.04289,-5.3e-4 0.01288,-1.2e-4 0.02537,1.4e-4 0.03824,-5.3e-4 0.01347,-0.001 0.02698,-0.002 0.04031,-0.004 0.01699,-0.003 0.03378,-0.006 0.05064,-0.0103 0.01818,-0.004 0.03651,-0.007 0.05478,-0.01 0.01733,-0.003 0.03507,-0.006 0.05219,-0.01 0.0182,-0.005 0.0361,-0.009 0.05426,-0.0129 0.01786,-0.005 0.03594,-0.009 0.05323,-0.016 0.01421,-0.005 0.02827,-0.01 0.04186,-0.0165 0.01328,-0.006 0.02673,-0.0121 0.04031,-0.0171 0.01222,-0.005 0.02397,-0.01 0.03618,-0.015 0.008,-0.004 0.0173,-0.008 0.0253,-0.0119 0.01,-0.005 0.0189,-0.011 0.0289,-0.016 0.009,-0.005 0.0178,-0.0111 0.0259,-0.017 0.0118,-0.009 0.024,-0.0178 0.0362,-0.0259 0.003,-0.002 0.006,-0.003 0.008,-0.005 v -0.27853 z" /></clipPath><clipPath
       clipPathUnits="userSpaceOnUse"
       id="clipPath1231"><path
         id="path1233"
         style="fill:#ff0000;fill-opacity:1;fill-rule:nonzero;stroke:none;stroke-width:7.5"
         d="m 653.46017,3010.5695 c -55.52872,0.037 -111.05377,-0.01 -166.58197,-0.381 -83.66917,-0.7913 -167.34809,-1.9917 -251.01561,-2.8565 43.10453,-10.5164 86.21017,-21.0786 129.63862,-30.1172 94.35225,-20.2543 188.89956,-39.5642 283.49121,-58.667 78.29684,-15.6449 156.55589,-31.5359 235.32711,-44.6337 46.87012,-8.646 94.44397,-10.6634 141.95807,-12.1582 67.412,-1.7011 134.8506,-2.036 202.2802,-2.3291 108.8646,-0.3217 217.7366,-0.3382 326.6016,-0.381 121.4987,-0.037 242.9971,-0.052 364.497,-0.06 88.4834,-0.01 176.9759,0 265.459,0 73.268,-8e-4 146.5461,1e-4 219.8144,0 80.8531,0.1643 161.7135,-0.393 242.5635,0.381 57.1267,1.6713 114.9898,2.5325 171.167,14.3555 11.5111,2.4228 22.8506,5.5942 34.2773,8.3935 49.6791,13.4142 98.5195,29.6237 147.0557,46.6847 v 68.4081 c -11.7092,0 -23.419,4e-4 -35.127,0 -40.437,0 -80.8667,1e-4 -121.3037,0 -37.0613,-0.579 -74.0255,-3.5703 -111.0352,-5.4492 -40.0859,-1.8804 -80.228,-2.3592 -120.3515,-2.7686 -60.9356,-0.474 -121.8755,-0.5152 -182.8125,-0.5857 -75.3237,-0.068 -150.6575,-0.075 -225.9814,-0.088 -53.9674,-0.01 -107.9285,-0.015 -161.8945,-0.015 -61.7349,1.1663 -123.4541,3.5159 -185.1563,5.874 -32.3681,1.3593 -64.7483,2.2695 -97.1338,3.0323 -32.1997,0 -64.402,0.015 -96.6064,0.015 -50.6187,3e-4 -101.2431,0 -151.8603,0 -50.3457,0 -100.6944,0 -151.0401,0.015 -46.4177,0.015 -92.8435,0.037 -139.2627,0.132 -54.9068,0.123 -109.8169,0.2745 -164.7216,0.8056 -67.89203,0.7223 -135.7893,1.6715 -203.64262,4.1603 -43.7433,1.8099 -87.38639,5.2548 -131.05957,8.1885 -22.51274,0.03 -45.03029,0.03 -67.54394,0.045 z m -540.30754,-16.1718 c -1.62255,-4.8735 -3.7917,-10.0181 -6.72368,-15.4541 -0.99195,-1.8396 -1.88482,-3.7384 -2.9736,-5.5225 -4.783347,-7.8378 -10.108871,-15.2009 -14.443346,-23.3203 -5.71755,-10.7103 -4.969575,-9.9821 -9.741224,-22.2949 -5.16015,-15.1774 -9.43575,-30.6882 -12.9492,-46.377 2.5368,-21.8837 7.485675,-43.4196 8.81835,-65.4199 2.24955,-42.4394 4.9632,-84.8417 6.650399,-127.3096 1.182675,-32.6256 1.5117,-65.2743 3.164025,-97.8808 1.6611,-32.4762 2.4351,-64.9921 3.105525,-97.5 0.0675,-17.9084 1.32615,-35.9739 -0.70275,-53.833 -1.895925,-16.6411 -3.67605,-21.9527 -7.543949,-38.2471 -4.546425,-16.4601 -10.78095,-32.3595 -16.728524,-48.3545 2.00955,-32.4213 4.035524,-64.841 5.976524,-97.2656 6.661875,-130.9669 9.542325,-262.1234 9.8145,-393.2519 1.291575,-42.834 -1.62,-85.4432 -5.50785,-128.042 -0.11325,-1.2394 -1.019325,-1.2702 -1.171875,-2.4609 10.664699,-10.5127 18.892349,-27.6019 21.210974,-51.7383 0.6465,-6.7343 1.2867,-13.4662 1.933575,-20.2002 0.98955,-44.0283 0.075,-88.0784 0.381,-132.1143 -0.0028,-5.2146 -0.015,-10.4296 -0.015,-15.6445 1.833675,-20.0681 3.342149,-40.159 4.643546,-60.2637 2.62283,-41.5184 3.1152,-83.13 3.58883,-124.7168 0.4305,-46.085 0.53025,-92.1789 0.615,-138.2666 0.06,-39.1381 0.0885,-78.2834 0.10275,-117.4218 0.29925,-30.5013 0.15225,-60.9727 -2.00685,-91.4063 -2.42775,-27.12089 -7.846801,-53.81474 -12.114301,-80.66887 -3.8937,-32.90992 -10.389374,-65.41454 -16.069349,-98.04201 -5.158275,-31.83135 -10.140749,-63.67553 -15.585899,-95.4492 -1.13055,-8.11927 -2.34495,-16.22437 -3.70605,-24.31642 -1.3053,-7.05345 -2.557725,-14.12318 -3.9111,-21.16703 -0.33825,-1.7613 -1.192875,-2.97292 -1.06935,-5.2734 3.379275,-25.49122 7.2087,-50.93437 10.415025,-76.39162 C 69.332155,494.00526 79.257955,409.40939 91.429029,325.05697 101.5409,264.78345 113.15735,204.732 125.39878,144.85193 c 3.72547,-13.57605 4.8114,-27.54352 6.84082,-41.36715 213.01026,1.19258 379.93528,3.43425 593.68646,5.88863 417.98204,7.55572 836.14104,8.5251 1254.02344,21.25492 59.3611,1.80818 118.703,4.33253 178.0517,6.50385 218.2373,8.91863 436.274,22.79903 653.4668,46.05472 53.5002,4.8489 106.4313,14.43323 159.7118,20.94728 7.2501,0.88635 14.586,2.8116 21.8555,3.04687 2.3254,0.075 4.6513,-0.0525 6.958,-0.41025 v 2674.8485 c -45.0678,-15.6257 -90.4131,-30.4364 -136.4941,-42.8173 -12.4438,-3.0096 -24.8067,-6.4286 -37.3388,-9.0381 -58.5212,-12.1846 -118.7418,-13.3186 -178.2422,-14.9854 -80.9925,-0.771 -161.9934,-0.222 -242.9883,-0.381 -73.2689,10e-5 -146.5316,-8e-4 -219.7998,0 -88.4837,10e-4 -176.9743,-0.01 -265.459,0 -121.5049,0.01 -243.0211,0.023 -364.5263,0.06 -108.9243,0.045 -217.8539,0.06 -326.7773,0.381 -67.8337,0.2955 -135.6804,0.6412 -203.4961,2.3584 -49.49363,1.566 -99.03667,3.7683 -147.86137,12.7442 -79.27357,13.1917 -158.03924,29.1394 -236.83589,44.8975 -94.67789,19.1202 -189.31768,38.4516 -283.75483,58.7256 -70.76812,14.7285 -141.77511,28.8855 -211.21581,49.1748 -10.88835,3.3129 -21.41805,7.6323 -32.0508,11.6601 z M 1767.2394,2096.2581 c 0.3683,0.052 0.4928,-0.2587 0.2198,-1.0254 -0.1868,-0.5332 -0.4635,-1.0331 -0.747,-1.5235 -0.2408,-0.4223 -0.5025,-0.8213 -0.8058,-1.2011 -0.36,-0.4057 -0.7962,-0.729 -1.2157,-1.0694 -0.2498,-0.21 -0.4913,-0.4185 -0.7178,-0.6735 -0.1417,-0.156 -0.252,-0.3142 -0.3367,-0.513 -0.108,-0.2242 -0.2243,-0.447 -0.366,-0.6735 -0.1845,-0.2895 -0.4185,-0.5205 -0.6735,-0.747 -0.153,-0.1357 -0.3263,-0.285 -0.4395,-0.4537 -0.1275,-0.21 -0.2385,-0.4178 -0.3518,-0.6443 -0.1222,-0.2122 -0.2092,-0.4327 -0.3225,-0.6592 -0.099,-0.2438 -0.2385,-0.4763 -0.3517,-0.7028 -0.1103,-0.201 -0.1943,-0.402 -0.3075,-0.6007 -0.147,-0.2183 -0.2678,-0.4478 -0.381,-0.6735 -0.1215,-0.1928 -0.2078,-0.417 -0.2933,-0.615 -0.037,-0.1035 -0.068,-0.2093 -0.1027,-0.3075 0.2625,0.1822 0.5077,0.3885 0.7911,0.5422 0.4702,0.2468 0.9598,0.4605 1.4502,0.6593 0.4027,0.1672 0.8043,0.357 1.2011,0.5272 0.3458,0.1785 0.693,0.3593 1.0108,0.5858 0.252,0.1702 0.519,0.33 0.7177,0.5565 0.1478,0.1417 0.2528,0.2692 0.366,0.4395 v 0.015 c 0.2595,0.4245 0.5873,0.6382 0.8643,0.6735 0.5288,0.068 0.9075,-0.483 0.4545,-1.3183 -0.1612,-0.3008 -0.4035,-0.5505 -0.63,-0.8057 -0.2835,-0.3008 -0.624,-0.5348 -0.9668,-0.7617 -0.3652,-0.255 -0.7455,-0.4755 -1.1425,-0.6735 -0.4312,-0.1988 -0.8672,-0.4013 -1.3038,-0.5715 -0.089,-0.037 -0.1747,-0.08 -0.264,-0.117 -0.037,-0.195 -0.1297,-0.4163 -0.3225,-0.6443 -0.2122,-0.252 -0.417,-0.5212 -0.615,-0.7763 -0.201,-0.2723 -0.432,-0.5213 -0.6592,-0.7764 -0.1673,-0.1755 -0.342,-0.3435 -0.4838,-0.5423 -0.015,-0.015 -0.03,-0.03 -0.045,-0.045 0.1883,0.087 0.3803,0.1695 0.5715,0.249 1.2444,0.5213 2.4807,1.0581 3.6768,1.6846 v -0.015 c 1.3611,0.7125 2.5913,1.0391 3.6329,1.0547 4.5129,0.068 5.6148,-5.4872 -0.264,-8.6133 -0.3015,-0.1605 -0.6008,-0.3195 -0.9083,-0.4687 0.4793,-0.5783 0.9627,-1.1553 1.5381,-1.6407 1.3608,-1.2923 2.6346,-2.6768 3.4425,-4.3946 0.5842,-1.1856 1.0854,-2.41 1.6553,-3.6034 3.5268,-7.3959 -3.7451,-11.04 -7.3976,-3.7061 -0.5925,1.1907 -1.0746,2.4422 -1.6698,3.6329 -0.3825,0.822 -1.0416,1.4349 -1.6992,2.0361 -1.0428,0.8931 -1.9419,1.9489 -2.7979,3.0175 -0.2535,0.2865 -0.4943,0.5805 -0.747,0.8643 -0.4178,-0.2445 -0.8271,-0.5055 -1.2304,-0.7764 -1.1403,-0.7653 -2.3733,-1.3737 -3.6035,-1.9776 -1.1268,-0.615 -2.3459,-1.0461 -3.545,-1.494 -1.6419,-0.6405 -3.3416,-1.0746 -5.0683,-1.4064 -1.6723,-0.3172 -3.3716,-0.3975 -5.0684,-0.4537 -1.7612,-0.06 -3.5264,-0.075 -5.288,-0.088 -1.2462,-0.01 -2.4891,-0.015 -3.7353,-0.015 h -3.4571 c -1.0449,-3e-4 -2.0899,0 -3.1348,0 h -3.369 c -8.1939,-3e-4 -8.1939,8.2761 0,8.2764 h 3.369 c 1.0443,0 2.0905,-3e-4 3.1348,0 0.9578,1e-4 1.9139,0 2.8712,0 -0.1988,0.4215 0.1537,0.9669 1.0399,0.9669 h 0.3518 0.791 1.0254 c 0.3772,0 0.7506,-3e-4 1.1279,0 0.4545,0 0.9079,-6e-4 1.3623,0 0.4043,3e-4 0.8117,0.01 1.2158,0.015 0.3652,0 0.7192,-6e-4 1.084,0.015 0.3818,0.03 0.7648,0.06 1.1426,0.117 0.4814,0.085 0.9575,0.1792 1.4354,0.2932 0.5153,0.1133 1.035,0.1935 1.5528,0.2783 0.4913,0.088 0.9942,0.165 1.4795,0.2782 0.516,0.1335 1.0233,0.2528 1.5381,0.366 0.5062,0.1335 1.0186,0.2558 1.5088,0.4538 0.4027,0.1447 0.8013,0.27 1.1865,0.4687 0.3765,0.1673 0.7577,0.3413 1.1426,0.4838 0.3457,0.1335 0.6795,0.2835 1.0254,0.4245 0.2407,0.1102 0.4912,0.2235 0.7177,0.3367 0.2753,0.1448 0.537,0.3128 0.8204,0.4538 0.252,0.15 0.5047,0.3127 0.7327,0.4837 0.3345,0.2498 0.6795,0.5055 1.0254,0.7328 0.2865,0.1897 0.5663,0.372 0.8496,0.5715 0.1785,0.1387 0.342,0.2842 0.513,0.4537 0.1703,0.1613 0.327,0.3143 0.4688,0.513 l 0.015,0.015 c 0.037,0.1358 0.1072,0.2873 0.2047,0.4395 0.03,0.03 0.037,0.06 0.06,0.088 0.156,0.2437 0.3278,0.4627 0.498,0.7177 0.162,0.2183 0.342,0.4178 0.4838,0.6443 0.1387,0.2212 0.282,0.432 0.3952,0.6592 0.1448,0.2408 0.2528,0.492 0.366,0.747 0.1133,0.2213 0.1635,0.462 0.249,0.6885 0.108,0.2633 0.2243,0.5063 0.366,0.7617 0.1163,0.2265 0.2393,0.447 0.381,0.6735 0.1133,0.1785 0.1935,0.372 0.2783,0.5423 0.108,0.2242 0.2235,0.447 0.3367,0.6735 0.1163,0.258 0.2243,0.5062 0.366,0.7617 0.1418,0.258 0.2693,0.507 0.4395,0.7618 0.1868,0.2663 0.4043,0.5048 0.6593,0.7028 0.1612,0.1335 0.297,0.255 0.4102,0.4245 0.1133,0.1875 0.1943,0.3877 0.3075,0.5857 0.153,0.2918 0.33,0.5655 0.5565,0.8204 0.2723,0.3007 0.564,0.5655 0.8789,0.8203 0.3405,0.2753 0.693,0.5498 0.9961,0.8642 0.255,0.315 0.4755,0.6593 0.6743,1.0108 0.1417,0.2408 0.282,0.477 0.3952,0.7328 0.06,0.1132 0.1193,0.2527 0.1755,0.366 l 0.015,0.015 0.015,0.03 c 0.4823,0.4117 0.9144,0.6645 1.2012,0.7035 z m -8.5693,-14.9707 c -0.1395,-0.1238 -0.2865,-0.24 -0.4103,-0.381 -0.1927,-0.2498 -0.3727,-0.5063 -0.5715,-0.7617 -0.1867,-0.2498 -0.4027,-0.462 -0.63,-0.6885 -0.147,-0.1485 -0.3052,-0.2805 -0.4687,-0.4103 0.2145,0.114 0.4117,0.258 0.63,0.366 0.098,0.052 0.1957,0.1065 0.2932,0.1613 0.2363,0.3922 0.4808,0.7723 0.747,1.1426 0.135,0.1913 0.2693,0.3863 0.4103,0.5715 z" /></clipPath><clipPath
       clipPathUnits="userSpaceOnUse"
       id="clipPath1241"><path
         id="path1243"
         style="fill:#ff0000;fill-opacity:1;fill-rule:nonzero;stroke:none;stroke-width:7.5"
         d="M 412.87428,2369.4368 V 1655.0032 H 2623.089 v 714.4336 z M 1767.2394,2096.2581 c 0.3683,0.052 0.4928,-0.2587 0.2198,-1.0254 -0.1868,-0.5332 -0.4635,-1.0331 -0.747,-1.5235 -0.2408,-0.4223 -0.5025,-0.8213 -0.8058,-1.2011 -0.36,-0.4057 -0.7962,-0.729 -1.2157,-1.0694 -0.2498,-0.21 -0.4913,-0.4185 -0.7178,-0.6735 -0.1417,-0.156 -0.252,-0.3142 -0.3367,-0.513 -0.108,-0.2242 -0.2243,-0.447 -0.366,-0.6735 -0.1845,-0.2895 -0.4185,-0.5205 -0.6735,-0.747 -0.153,-0.1357 -0.3263,-0.285 -0.4395,-0.4537 -0.1275,-0.21 -0.2385,-0.4178 -0.3518,-0.6443 -0.1222,-0.2122 -0.2092,-0.4327 -0.3225,-0.6592 -0.099,-0.2438 -0.2385,-0.4763 -0.3517,-0.7028 -0.1103,-0.201 -0.1943,-0.402 -0.3075,-0.6007 -0.147,-0.2183 -0.2678,-0.4478 -0.381,-0.6735 -0.1215,-0.1928 -0.2078,-0.417 -0.2933,-0.615 -0.037,-0.1035 -0.068,-0.2093 -0.1027,-0.3075 0.2625,0.1822 0.5077,0.3885 0.7911,0.5422 0.4702,0.2468 0.9598,0.4605 1.4502,0.6593 0.4027,0.1672 0.8043,0.357 1.2011,0.5272 0.3458,0.1785 0.693,0.3593 1.0108,0.5858 0.252,0.1702 0.519,0.33 0.7177,0.5565 0.1478,0.1417 0.2528,0.2692 0.366,0.4395 v 0.015 c 0.2595,0.4245 0.5873,0.6382 0.8643,0.6735 0.5288,0.068 0.9075,-0.483 0.4545,-1.3183 -0.1612,-0.3008 -0.4035,-0.5505 -0.63,-0.8057 -0.2835,-0.3008 -0.624,-0.5348 -0.9668,-0.7617 -0.3652,-0.255 -0.7455,-0.4755 -1.1425,-0.6735 -0.4312,-0.1988 -0.8672,-0.4013 -1.3038,-0.5715 -0.089,-0.037 -0.1747,-0.08 -0.264,-0.117 -0.037,-0.195 -0.1297,-0.4163 -0.3225,-0.6443 -0.2122,-0.252 -0.417,-0.5212 -0.615,-0.7763 -0.201,-0.2723 -0.432,-0.5213 -0.6592,-0.7764 -0.1673,-0.1755 -0.342,-0.3435 -0.4838,-0.5423 -0.015,-0.015 -0.03,-0.03 -0.045,-0.045 0.1883,0.087 0.3803,0.1695 0.5715,0.249 1.2444,0.5213 2.4807,1.0581 3.6768,1.6846 v -0.015 c 1.3611,0.7125 2.5913,1.0391 3.6329,1.0547 4.5129,0.068 5.6148,-5.4872 -0.264,-8.6133 -0.3015,-0.1605 -0.6008,-0.3195 -0.9083,-0.4687 0.4793,-0.5783 0.9627,-1.1553 1.5381,-1.6407 1.3608,-1.2923 2.6346,-2.6768 3.4425,-4.3946 0.5842,-1.1856 1.0856,-2.41 1.6553,-3.6034 3.5268,-7.3959 -3.7451,-11.04 -7.3976,-3.7061 -0.5925,1.1904 -1.0746,2.4422 -1.6698,3.6329 -0.3825,0.822 -1.0416,1.4352 -1.6992,2.0361 -1.0428,0.8931 -1.9417,1.9489 -2.7979,3.0175 -0.2535,0.2865 -0.4943,0.5805 -0.747,0.8643 -0.4178,-0.2445 -0.8271,-0.5055 -1.2304,-0.7764 -1.1403,-0.7653 -2.3733,-1.3737 -3.6035,-1.9776 -1.1268,-0.615 -2.3459,-1.0461 -3.545,-1.494 -1.6419,-0.6405 -3.3416,-1.0746 -5.0683,-1.4064 -1.6723,-0.3172 -3.3716,-0.3975 -5.0684,-0.4537 -1.7612,-0.06 -3.5264,-0.075 -5.288,-0.088 -1.2462,-0.01 -2.4891,-0.015 -3.7353,-0.015 h -3.4571 c -1.0449,-3e-4 -2.0899,0 -3.1348,0 h -3.369 c -8.1939,-3e-4 -8.1939,8.2761 0,8.2764 h 3.369 c 1.0443,0 2.0905,-3e-4 3.1348,0 0.9578,1e-4 1.9139,0 2.8712,0 -0.1988,0.4215 0.1537,0.9669 1.0399,0.9669 h 0.3518 0.791 1.0254 c 0.3772,0 0.7506,-3e-4 1.1279,0 0.4545,0 0.9079,-6e-4 1.3623,0 0.4043,3e-4 0.8117,0.01 1.2158,0.015 0.3652,0 0.7192,-6e-4 1.084,0.015 0.3818,0.03 0.7648,0.06 1.1426,0.117 0.4814,0.085 0.9575,0.1792 1.4354,0.2932 0.5153,0.1133 1.035,0.1935 1.5528,0.2783 0.4913,0.088 0.9942,0.165 1.4795,0.2782 0.516,0.1335 1.0233,0.2528 1.5381,0.366 0.5062,0.1335 1.0186,0.2558 1.5088,0.4538 0.4027,0.1447 0.8013,0.27 1.1865,0.4687 0.3765,0.1673 0.7577,0.3413 1.1426,0.4838 0.3457,0.1335 0.6795,0.2835 1.0254,0.4245 0.2407,0.1102 0.4912,0.2235 0.7177,0.3367 0.2753,0.1448 0.537,0.3128 0.8204,0.4538 0.252,0.15 0.5047,0.3127 0.7327,0.4837 0.3345,0.2498 0.6795,0.5055 1.0254,0.7328 0.2865,0.1897 0.5663,0.372 0.8496,0.5715 0.1785,0.1387 0.342,0.2842 0.513,0.4537 0.1703,0.1613 0.327,0.3143 0.4688,0.513 l 0.015,0.015 c 0.037,0.1358 0.1072,0.2873 0.2047,0.4395 0.03,0.03 0.037,0.06 0.06,0.088 0.156,0.2437 0.3278,0.4627 0.498,0.7177 0.162,0.2183 0.342,0.4178 0.4838,0.6443 0.1387,0.2212 0.282,0.432 0.3952,0.6592 0.1448,0.2408 0.2528,0.492 0.366,0.747 0.1133,0.2213 0.1635,0.462 0.249,0.6885 0.108,0.2633 0.2243,0.5063 0.366,0.7617 0.1163,0.2265 0.2393,0.447 0.381,0.6735 0.1133,0.1785 0.1935,0.372 0.2783,0.5423 0.108,0.2242 0.2235,0.447 0.3367,0.6735 0.1163,0.258 0.2243,0.5062 0.366,0.7617 0.1418,0.258 0.2693,0.507 0.4395,0.7618 0.1868,0.2663 0.4043,0.5048 0.6593,0.7028 0.1612,0.1335 0.297,0.255 0.4102,0.4245 0.1133,0.1875 0.1943,0.3877 0.3075,0.5857 0.153,0.2918 0.33,0.5655 0.5565,0.8204 0.2723,0.3007 0.564,0.5655 0.8789,0.8203 0.3405,0.2753 0.693,0.5498 0.9961,0.8642 0.255,0.315 0.4755,0.6593 0.6743,1.0108 0.1417,0.2408 0.282,0.477 0.3952,0.7328 0.06,0.1132 0.1193,0.2527 0.1755,0.366 l 0.015,0.015 0.015,0.03 c 0.4823,0.4117 0.9144,0.6645 1.2012,0.7035 z m -8.5693,-14.9707 c -0.1395,-0.1238 -0.2865,-0.24 -0.4103,-0.381 -0.1927,-0.2498 -0.3727,-0.5063 -0.5715,-0.7617 -0.1867,-0.2498 -0.4027,-0.462 -0.63,-0.6885 -0.147,-0.1485 -0.3052,-0.2805 -0.4687,-0.4103 0.2145,0.114 0.4117,0.258 0.63,0.366 0.098,0.052 0.1957,0.1065 0.2932,0.1613 0.2363,0.3922 0.4808,0.7723 0.747,1.1426 0.135,0.1913 0.2693,0.3863 0.4103,0.5715 z" /></clipPath><clipPath
       clipPathUnits="userSpaceOnUse"
       id="clipPath1251"><path
         id="path1253"
         style="fill:#ff0000;fill-opacity:1;fill-rule:nonzero;stroke:none;stroke-width:0.264583"
         d="m 100.35977,116.31538 -1.33274,5.3e-4 v 1.18701 h 0.595313 c 0.0034,-5.3e-4 0.0065,-0.001 0.0098,-0.002 0.01699,-0.003 0.03378,-0.006 0.05064,-0.0103 0.01818,-0.004 0.03651,-0.007 0.05478,-0.01 0.01733,-0.003 0.03507,-0.006 0.05219,-0.01 0.0182,-0.005 0.0361,-0.009 0.05426,-0.0129 0.01786,-0.005 0.03594,-0.009 0.05323,-0.016 0.01421,-0.005 0.02827,-0.01 0.04186,-0.0165 0.01328,-0.006 0.02673,-0.012 0.04031,-0.017 0.01222,-0.005 0.02398,-0.01 0.03618,-0.015 0.008,-0.004 0.0173,-0.008 0.0253,-0.0119 0.01,-0.005 0.0189,-0.011 0.0289,-0.016 0.009,-0.005 0.0178,-0.0112 0.0258,-0.0171 0.0118,-0.009 0.024,-0.0177 0.0362,-0.0258 0.0101,-0.007 0.02,-0.0136 0.03,-0.0207 0.006,-0.005 0.0121,-0.01 0.0181,-0.016 0.006,-0.006 0.0115,-0.0111 0.0165,-0.0181 2.7e-4,-5.3e-4 5.3e-4,-10e-4 0.001,-0.002 0.001,-0.004 0.004,-0.009 0.007,-0.0134 10e-4,-10e-4 10e-4,-0.002 0.002,-0.003 0.005,-0.009 0.0116,-0.0163 0.0176,-0.0253 0.006,-0.008 0.012,-0.0147 0.017,-0.0227 0.005,-0.008 0.01,-0.0152 0.014,-0.0233 0.005,-0.008 0.009,-0.0174 0.0129,-0.0264 0.004,-0.008 0.006,-0.0163 0.009,-0.0243 0.004,-0.009 0.008,-0.0179 0.0129,-0.0269 0.004,-0.008 0.008,-0.0158 0.0134,-0.0238 0.004,-0.006 0.007,-0.0131 0.01,-0.0191 0.004,-0.008 0.008,-0.0158 0.0119,-0.0238 0.004,-0.009 0.008,-0.0179 0.0129,-0.0269 0.005,-0.009 0.01,-0.0179 0.0155,-0.0269 0.002,-0.003 0.004,-0.006 0.007,-0.009 z m 0,0.76326 c -1.7e-4,2.7e-4 -2.5e-4,7.9e-4 -5.3e-4,0.001 -0.004,0.007 -0.007,0.0142 -0.0109,0.0212 -0.005,0.008 -0.009,0.0158 -0.0134,0.0238 -0.004,0.007 -0.007,0.0147 -0.0103,0.0217 -0.001,0.003 -0.002,0.006 -0.003,0.008 0.009,-0.006 0.0179,-0.0118 0.0274,-0.017 0.004,-0.002 0.007,-0.003 0.0108,-0.005 z m 0,0.15917 c -0.002,0.002 -0.003,0.004 -0.005,0.006 -0.002,0.003 -0.005,0.005 -0.007,0.008 0.003,10e-4 0.006,0.002 0.009,0.004 0.001,-5.2e-4 0.002,-5.2e-4 0.003,-10e-4 z" /></clipPath><clipPath
       clipPathUnits="userSpaceOnUse"
       id="clipPath1261"><path
         id="path1263"
         style="fill:#ff0000;fill-opacity:1;fill-rule:nonzero;stroke:none;stroke-width:0.264583"
         d="m 99.794425,116.44664 v 0.98754 h 0.125058 c 0.0066,-0.002 0.0132,-0.005 0.01963,-0.008 0.01328,-0.006 0.02673,-0.0126 0.04031,-0.0176 0.01222,-0.005 0.02398,-0.01 0.03618,-0.015 0.008,-0.004 0.0173,-0.008 0.0253,-0.0119 0.01,-0.005 0.0189,-0.011 0.0289,-0.016 0.009,-0.005 0.0178,-0.0106 0.0258,-0.0165 0.0118,-0.009 0.024,-0.0178 0.0362,-0.0258 0.0101,-0.007 0.02,-0.0131 0.03,-0.0202 0.006,-0.005 0.0121,-0.01 0.0181,-0.016 0.006,-0.005 0.0108,-0.0103 0.0155,-0.0165 v -0.82372 z" /></clipPath><clipPath
       clipPathUnits="userSpaceOnUse"
       id="clipPath1271"><path
         id="path1273"
         style="fill:#ff0000;fill-opacity:1;fill-rule:nonzero;stroke:none"
         d="m 365.72852,429.07813 v 13.81445 h 13.17969 c 0.002,-0.005 0.005,-0.009 0.008,-0.0137 0.0193,-0.0321 0.0337,-0.0656 0.0488,-0.0996 0.0151,-0.0295 0.0219,-0.0616 0.0332,-0.0918 0.0144,-0.0351 0.0299,-0.0675 0.0488,-0.10157 0.0155,-0.0302 0.0319,-0.0596 0.0508,-0.0898 0.0151,-0.0238 0.0258,-0.0496 0.0371,-0.0723 0.0144,-0.0298 0.0298,-0.0596 0.0449,-0.0898 0.0155,-0.0344 0.0299,-0.0675 0.0488,-0.10156 0.0189,-0.0344 0.0359,-0.0675 0.0586,-0.10157 0.0249,-0.0355 0.0539,-0.0674 0.0879,-0.0937 0.0215,-0.0178 0.0396,-0.034 0.0547,-0.0566 0.0151,-0.0249 0.0259,-0.0517 0.041,-0.0781 0.0204,-0.0389 0.044,-0.0754 0.0742,-0.10938 0.0363,-0.0401 0.0752,-0.0754 0.11718,-0.10937 0.0454,-0.0367 0.0924,-0.0733 0.13282,-0.11524 0.034,-0.0419 0.0634,-0.0879 0.0898,-0.13476 0.0189,-0.0321 0.0376,-0.0636 0.0527,-0.0977 0.008,-0.0151 0.0159,-0.0337 0.0234,-0.0488 l 0.002,-0.002 0.002,-0.004 c 0.0643,-0.0549 0.12194,-0.0886 0.16015,-0.0937 0.0491,-0.007 0.0657,0.0345 0.0293,0.13671 -0.0249,0.0711 -0.0618,0.13774 -0.0996,0.20313 -0.0321,0.0563 -0.067,0.10951 -0.10742,0.16016 -0.048,0.054 -0.10617,0.0972 -0.16211,0.14257 -0.0333,0.028 -0.0655,0.0558 -0.0957,0.0899 -0.0189,0.0208 -0.0336,0.0419 -0.0449,0.0684 -0.0144,0.0299 -0.0299,0.0596 -0.0488,0.0898 -0.0246,0.0385 -0.0557,0.0694 -0.0899,0.0996 -0.0204,0.0181 -0.0435,0.038 -0.0586,0.0605 -0.017,0.028 -0.0318,0.0557 -0.0469,0.0859 -0.0163,0.0283 -0.0279,0.0577 -0.043,0.0879 -0.0132,0.0325 -0.0318,0.0635 -0.0469,0.0937 -0.0147,0.0268 -0.0259,0.0536 -0.041,0.0801 -0.0197,0.0291 -0.0357,0.0596 -0.0508,0.0898 -0.0163,0.0257 -0.0277,0.0556 -0.0391,0.082 -0.004,0.0112 -0.008,0.0225 -0.0117,0.0332 0.0334,-0.0229 0.0676,-0.045 0.10352,-0.0645 0.0627,-0.0329 0.12797,-0.0614 0.19336,-0.0879 0.0537,-0.0223 0.10724,-0.0476 0.16015,-0.0703 0.0461,-0.0238 0.0924,-0.0479 0.13477,-0.0781 0.0336,-0.0227 0.0693,-0.044 0.0957,-0.0742 0.0197,-0.0189 0.0337,-0.0359 0.0488,-0.0586 v -0.002 c 0.0346,-0.0566 0.0783,-0.0851 0.11524,-0.0898 0.0705,-0.009 0.12117,0.0644 0.0605,0.17578 -0.0215,0.0401 -0.0538,0.0734 -0.084,0.10742 -0.0378,0.0401 -0.0832,0.0713 -0.12891,0.10157 -0.0487,0.034 -0.0994,0.0634 -0.15234,0.0898 -0.0575,0.0265 -0.11562,0.0535 -0.17383,0.0762 -0.0118,0.005 -0.0233,0.0107 -0.0352,0.0156 -0.003,0.0188 -0.01,0.0392 -0.0234,0.0605 h 0.42187 c 0.10226,-0.0431 0.19775,-0.0692 0.28516,-0.0801 v -13.73438 z" /></clipPath><clipPath
       clipPathUnits="userSpaceOnUse"
       id="clipPath1281"><path
         id="path1283"
         style="fill:#ff0000;fill-opacity:1;fill-rule:nonzero;stroke:none"
         d="m 238.57422,409.40821 v 63.11523 h 212.54493 v -63.11523 z m 141.55078,31.7793 c 0.0491,-0.007 0.0657,0.0345 0.0293,0.13671 -0.0249,0.0711 -0.0618,0.13774 -0.0996,0.20313 -0.0321,0.0563 -0.067,0.10951 -0.10742,0.16016 -0.048,0.054 -0.10617,0.0972 -0.16211,0.14257 -0.0333,0.028 -0.0655,0.0558 -0.0957,0.0899 -0.0189,0.0208 -0.0336,0.0419 -0.0449,0.0684 -0.0144,0.0299 -0.0299,0.0596 -0.0488,0.0898 -0.0246,0.0385 -0.0557,0.0694 -0.0899,0.0996 -0.0204,0.0181 -0.0435,0.038 -0.0586,0.0605 -0.017,0.028 -0.0318,0.0557 -0.0469,0.0859 -0.0163,0.0283 -0.0279,0.0577 -0.043,0.0879 -0.0132,0.0325 -0.0318,0.0635 -0.0469,0.0937 -0.0147,0.0268 -0.0259,0.0536 -0.041,0.0801 -0.0197,0.0291 -0.0357,0.0596 -0.0508,0.0898 -0.0163,0.0257 -0.0277,0.0556 -0.0391,0.082 -0.005,0.0138 -0.009,0.0279 -0.0137,0.041 0.035,-0.0242 0.0677,-0.0518 0.10547,-0.0723 0.0627,-0.0329 0.12797,-0.0614 0.19336,-0.0879 0.0537,-0.0223 0.10724,-0.0476 0.16015,-0.0703 0.0461,-0.0238 0.0924,-0.0479 0.13477,-0.0781 0.0336,-0.0227 0.0693,-0.044 0.0957,-0.0742 0.0197,-0.0189 0.0337,-0.0359 0.0488,-0.0586 v -0.002 c 0.0346,-0.0566 0.0783,-0.0851 0.11524,-0.0898 0.0705,-0.009 0.12117,0.0644 0.0605,0.17578 -0.0215,0.0401 -0.0538,0.0734 -0.084,0.10742 -0.0378,0.0401 -0.0832,0.0713 -0.12891,0.10157 -0.0487,0.034 -0.0994,0.0634 -0.15234,0.0898 -0.0575,0.0265 -0.11562,0.0535 -0.17383,0.0762 -0.0118,0.005 -0.0233,0.0107 -0.0352,0.0156 -0.005,0.026 -0.0173,0.0555 -0.043,0.0859 -0.0283,0.0336 -0.0556,0.0695 -0.082,0.10352 -0.0268,0.0363 -0.0576,0.0695 -0.0879,0.10352 -0.0146,0.0154 -0.029,0.031 -0.043,0.0469 0.009,0.004 0.0181,0.004 0.0274,0.008 0.007,-0.003 0.0143,-0.007 0.0215,-0.01 0.16589,-0.0695 0.33074,-0.14108 0.49024,-0.22461 v 0.002 c 0.18145,-0.095 0.34551,-0.13855 0.48437,-0.14062 0.60174,-0.009 0.74838,0.73163 -0.0351,1.14843 -0.0402,0.0214 -0.0801,0.0427 -0.1211,0.0625 0.0639,0.0771 0.12835,0.15403 0.20508,0.21875 0.18142,0.17231 0.35127,0.3569 0.45898,0.58594 0.0779,0.1581 0.14474,0.32135 0.22071,0.48047 0.47025,0.98612 -0.49934,1.47205 -0.98633,0.49414 -0.079,-0.15874 -0.14329,-0.32563 -0.22266,-0.48437 -0.051,-0.10961 -0.13887,-0.19136 -0.22656,-0.27149 -0.13905,-0.11909 -0.2589,-0.25985 -0.37305,-0.40234 -0.0338,-0.0382 -0.0659,-0.0774 -0.0996,-0.11524 -0.0557,0.0326 -0.11028,0.0675 -0.16406,0.10352 -0.15205,0.10205 -0.31644,0.18317 -0.48047,0.26367 -0.15023,0.082 -0.31278,0.1395 -0.47265,0.19922 -0.2189,0.0854 -0.44557,0.14328 -0.67578,0.1875 -0.22297,0.0423 -0.44954,0.053 -0.67579,0.0606 -0.23482,0.008 -0.47018,0.01 -0.70507,0.0117 -0.16617,10e-4 -0.33186,0.002 -0.49805,0.002 -0.1536,1.9e-4 -0.30734,0 -0.46094,0 -0.13931,4e-5 -0.27865,0 -0.41797,0 h -0.44922 c -1.09246,4e-5 -1.09246,-1.10348 0,-1.10352 h 0.44922 c 0.13926,0 0.27873,4e-5 0.41797,0 0.12769,-3e-5 0.2552,6e-5 0.38281,0 -0.0265,-0.0562 0.0205,-0.1289 0.13868,-0.1289 h 0.0469 0.10547 0.13672 c 0.0503,0 0.10008,3e-5 0.15039,0 0.0606,0 0.12105,7e-5 0.18164,0 0.0539,-8e-5 0.10821,-0.002 0.16211,-0.002 0.0487,-4.5e-4 0.0959,6.4e-4 0.14453,-0.002 0.0509,-0.004 0.10196,-0.008 0.15234,-0.0156 0.0642,-0.0113 0.12769,-0.0239 0.19141,-0.0391 0.0687,-0.0151 0.13798,-0.0258 0.20703,-0.0371 0.0655,-0.0117 0.13256,-0.022 0.19727,-0.0371 0.0688,-0.0178 0.13644,-0.0337 0.20508,-0.0488 0.0675,-0.0178 0.13582,-0.0342 0.20117,-0.0605 0.0537,-0.0193 0.10684,-0.036 0.1582,-0.0625 0.0502,-0.0223 0.10102,-0.0456 0.15234,-0.0645 0.0462,-0.0178 0.0906,-0.0378 0.13672,-0.0566 0.0321,-0.0147 0.0655,-0.0298 0.0957,-0.0449 0.0367,-0.0193 0.0716,-0.0417 0.10937,-0.0605 0.0336,-0.02 0.0674,-0.0418 0.0977,-0.0645 0.0446,-0.0333 0.0906,-0.0674 0.13672,-0.0977 0.0382,-0.0253 0.0755,-0.0497 0.11328,-0.0762 0.0238,-0.0185 0.0457,-0.0379 0.0684,-0.0605 0.0227,-0.0215 0.0436,-0.0419 0.0625,-0.0684 l 0.002,-0.002 c 0.005,-0.0181 0.0143,-0.0383 0.0273,-0.0586 0.004,-0.004 0.005,-0.008 0.008,-0.0117 0.0208,-0.0325 0.0437,-0.0617 0.0664,-0.0957 0.0215,-0.0291 0.0456,-0.0557 0.0645,-0.0859 0.0185,-0.0295 0.0376,-0.0577 0.0527,-0.0879 0.0193,-0.0321 0.0337,-0.0656 0.0488,-0.0996 0.0151,-0.0295 0.0219,-0.0616 0.0332,-0.0918 0.0144,-0.0351 0.0299,-0.0675 0.0488,-0.10157 0.0155,-0.0302 0.0319,-0.0596 0.0508,-0.0898 0.0151,-0.0238 0.0258,-0.0496 0.0371,-0.0723 0.0144,-0.0298 0.0298,-0.0596 0.0449,-0.0898 0.0155,-0.0344 0.0299,-0.0675 0.0488,-0.10156 0.0189,-0.0344 0.0359,-0.0675 0.0586,-0.10157 0.0249,-0.0355 0.0539,-0.0674 0.0879,-0.0937 0.0215,-0.0178 0.0396,-0.034 0.0547,-0.0566 0.0151,-0.0249 0.0259,-0.0517 0.041,-0.0781 0.0204,-0.0389 0.044,-0.0754 0.0742,-0.10938 0.0363,-0.0401 0.0752,-0.0754 0.11718,-0.10937 0.0454,-0.0367 0.0924,-0.0733 0.13282,-0.11524 0.034,-0.0419 0.0634,-0.0879 0.0898,-0.13476 0.0189,-0.0321 0.0376,-0.0636 0.0527,-0.0977 0.008,-0.0151 0.0159,-0.0337 0.0234,-0.0488 l 0.002,-0.002 0.002,-0.004 c 0.0643,-0.0549 0.12194,-0.0886 0.16015,-0.0937 z" /></clipPath><clipPath
       clipPathUnits="userSpaceOnUse"
       id="clipPath1291"><path
         id="path1293"
         style="fill:#ff0000;fill-opacity:1;fill-rule:nonzero;stroke:none;stroke-width:0.264583"
         d="m 100.22231,116.93498 c -0.412551,1.8e-4 -0.825102,3.5e-4 -1.237653,5.3e-4 0,0.20171 0,0.40342 0,0.60513 0.108348,0 0.216696,0 0.325044,0 -0.0091,-0.0281 0.0261,-0.0364 0.04769,-0.0341 0.08152,-3.2e-4 0.163108,0.001 0.244567,-0.002 0.05036,-0.003 0.09871,-0.0195 0.148681,-0.0258 0.04495,-0.009 0.08955,-0.0192 0.133522,-0.0319 0.04495,-0.0149 0.08722,-0.0365 0.131449,-0.0533 0.0404,-0.017 0.0767,-0.0417 0.11173,-0.0677 0.0335,-0.0208 0.0677,-0.0451 0.0825,-0.0828 0.0101,-0.01 0.0133,-0.0217 0.0118,-0.035 2.4e-4,-0.091 4.8e-4,-0.18209 7.2e-4,-0.27314 z"
         inkscape:original-d="m 100.22231,116.93498 -1.237653,5.3e-4 v 0.60513 h 0.11317 c 0.03684,0 0.07375,1e-5 0.110588,0 0.03378,-1e-5 0.06752,1e-5 0.101286,0 -0.007,-0.0149 0.0054,-0.0341 0.03669,-0.0341 h 0.01241 0.0279 0.03617 c 0.01331,0 0.02648,1e-5 0.03979,0 0.01603,0 0.03203,2e-5 0.04806,0 0.01426,-2e-5 0.02863,-2.2e-4 0.04289,-5.3e-4 0.01288,-1.2e-4 0.02537,1.6e-4 0.03824,-5.3e-4 0.01347,-0.001 0.02698,-0.002 0.04031,-0.004 0.01699,-0.003 0.03378,-0.006 0.05064,-0.0103 0.01818,-0.004 0.03651,-0.007 0.05478,-0.01 0.01733,-0.003 0.03507,-0.006 0.05219,-0.01 0.0182,-0.005 0.0361,-0.009 0.05426,-0.0129 0.01786,-0.005 0.03594,-0.009 0.05323,-0.016 0.01421,-0.005 0.02827,-0.01 0.04186,-0.0165 0.01328,-0.006 0.02673,-0.0121 0.04031,-0.0171 0.01222,-0.005 0.02397,-0.01 0.03618,-0.015 0.008,-0.004 0.0173,-0.008 0.0253,-0.0119 0.01,-0.005 0.0189,-0.011 0.0289,-0.016 0.009,-0.005 0.0176,-0.0111 0.0259,-0.017 0.0118,-0.009 0.024,-0.0177 0.0362,-0.0259 0.0101,-0.007 0.02,-0.0131 0.03,-0.0202 0.006,-0.005 0.0121,-0.01 0.0181,-0.016 0.006,-0.006 0.0115,-0.0111 0.0165,-0.0181 l 5.3e-4,-5.3e-4 v -5.3e-4 c 0.001,-0.005 0.004,-0.0105 0.007,-0.0155 10e-4,-0.001 10e-4,-0.002 0.002,-0.003 0.005,-0.008 0.01,-0.0151 0.0155,-0.0233 z" /></clipPath></defs><g
     inkscape:label="Layer 1"
     inkscape:groupmode="layer"
     id="layer1"
     transform="translate(0.94385593,-0.62923729)"><g
       transform="matrix(0.03527778,0,0,-0.03527778,-8.0184847,90.948081)"
       fill="#000000"
       stroke="none"
       id="g478"
       style="fill:#000000;fill-opacity:1"><path
         d="M 10,1530 V 10 h 1495 c 990,0 1495,3 1495,10 0,7 -498,10 -1474,10 C 182,30 52,31 46,46 c -12,30 -6,2957 6,2971 8,11 285,13 1479,13 973,0 1469,3 1469,10 0,7 -505,10 -1495,10 H 10 Z"
         id="path434"
         clip-path="url(#clipPath1231)"
         style="fill:#000000;fill-opacity:1" /><path
         d="m 1175,2350 c -207,-33 -436,-104 -477,-147 -21,-23 -23,-34 -26,-169 -4,-138 -5,-144 -25,-148 -100,-21 -135,-30 -153,-41 -11,-7 -31,-15 -45,-17 -33,-4 -46,-45 -28,-84 15,-30 19,-31 97,-18 l 42,7 v -39 l 1,-39 19,39 c 11,21 24,44 31,52 10,12 1,14 -52,14 -51,0 -67,-4 -86,-22 -13,-12 -25,-20 -27,-17 -2,2 -6,23 -9,47 -5,39 -4,42 19,42 28,0 29,-2 9,-40 -9,-17 -13,-30 -10,-30 2,0 14,18 25,39 21,43 39,51 148,72 77,15 240,7 336,-16 37,-9 73,-14 80,-12 6,3 -17,10 -51,18 -35,7 -63,16 -63,19 0,3 46,16 103,28 364,82 512,101 638,82 47,-7 83,-18 86,-26 2,-7 17,-17 31,-22 15,-5 58,-30 96,-56 67,-45 73,-47 130,-44 l 61,3 -129,50 c -71,27 -123,51 -117,53 7,2 -20,20 -61,40 -68,33 -81,36 -181,39 -131,4 -304,-21 -510,-73 -78,-20 -169,-37 -202,-38 l -60,-1 -3,107 c -3,124 -8,117 104,143 183,43 369,73 345,57 -7,-5 -11,-14 -7,-20 3,-5 -1,-12 -9,-16 -19,-7 -19,-45 0,-73 12,-17 22,-20 47,-16 39,5 53,18 62,56 6,26 5,27 -15,17 -16,-9 -19,-18 -15,-36 6,-22 5,-23 -14,-12 -16,11 -22,10 -35,-7 -16,-20 -16,-19 -11,4 3,16 -1,29 -12,37 -16,12 -15,13 5,14 23,0 40,31 27,51 -4,8 -3,9 4,5 7,-4 12,-16 12,-27 0,-12 7,-19 18,-19 29,0 33,11 12,30 -20,18 -20,18 2,24 36,9 118,7 118,-3 0,-6 -5,-13 -11,-17 -7,-4 -8,-20 -4,-43 10,-51 16,-57 30,-31 11,21 10,26 -9,42 l -21,17 26,1 c 19,0 29,7 33,23 l 7,22 11,-22 c 7,-15 20,-23 37,-23 h 26 l -24,-19 c -20,-15 -22,-21 -11,-40 6,-13 13,-21 14,-19 1,1 8,12 16,22 13,18 13,19 0,11 -13,-8 -13,-7 -1,8 11,14 12,23 2,43 -6,14 -11,27 -11,29 0,8 103,4 130,-5 14,-5 18,-8 9,-9 -9,-1 -22,-8 -29,-16 -10,-12 -9,-16 4,-21 10,-4 22,0 30,11 12,17 13,17 19,-4 3,-14 13,-21 28,-21 22,0 22,-1 4,-14 -16,-11 -17,-18 -9,-37 11,-23 11,-23 24,15 7,24 9,41 3,45 -12,8 -24,51 -14,51 4,0 70,-11 146,-25 76,-13 140,-23 143,-21 5,5 -16,11 -108,30 -323,69 -662,62 -975,-20 -16,-4 -17,-3 -5,5 30,19 268,62 403,73 233,19 517,-15 731,-87 54,-19 103,-40 107,-47 5,-7 9,-68 9,-134 v -122 l -43,-6 c -34,-5 -69,1 -160,29 -64,19 -120,35 -124,35 -5,-1 42,-22 102,-47 110,-46 110,-46 215,-44 71,2 126,-2 167,-13 60,-16 81,-24 207,-81 46,-20 56,-22 45,-9 -19,23 -160,90 -231,110 l -58,17 v 159 c 0,94 -4,168 -11,179 -26,49 -336,136 -599,169 -131,16 -417,11 -545,-10 z m 639,-35 c 117,-18 263,-54 393,-97 l 93,-31 v -163 -164 h -35 -35 v 138 138 l -112,36 c -129,41 -203,60 -338,84 -131,24 -428,24 -565,0 -117,-19 -296,-65 -376,-95 l -56,-21 -7,-78 c -3,-43 -3,-99 0,-125 l 7,-47 h -35 -35 l -6,68 c -4,37 -4,104 0,149 l 6,82 121,39 c 171,56 317,85 531,106 76,8 350,-4 449,-19 z"
         id="path436"
         clip-path="url(#clipPath1241)"
         style="fill:#000000;fill-opacity:1" /><path
         d="m 1865,2280 c 17,-5 71,-18 120,-30 123,-29 246,-69 268,-88 14,-13 17,-35 18,-146 1,-147 16,-139 18,10 2,151 5,146 -107,182 -124,41 -235,69 -298,76 -39,4 -43,4 -19,-4 z"
         id="path438"
         style="fill:#000000;fill-opacity:1" /><path
         d="m 1071,2129 c -21,-28 -22,-32 -7,-55 18,-26 57,-32 73,-11 6,6 13,24 17,39 5,23 1,29 -26,42 -17,9 -32,16 -33,16 -1,0 -11,-14 -24,-31 z m 67,-10 c 10,0 12,-3 5,-6 -7,-2 -13,-14 -13,-24 0,-12 -5,-17 -10,-14 -6,4 -18,1 -27,-7 -15,-11 -16,-11 -10,5 4,12 1,20 -10,24 -14,5 -13,8 5,14 12,5 22,16 22,26 1,17 1,17 11,1 5,-10 18,-18 27,-19 z"
         id="path440"
         style="fill:#000000;fill-opacity:1" /><path
         d="m 1650,2145 c 0,-8 5,-15 11,-15 6,0 9,-6 6,-14 -7,-18 9,-31 46,-40 30,-7 36,4 12,24 -12,10 -18,10 -32,-1 -15,-13 -16,-11 -10,13 6,21 3,30 -13,38 -16,9 -20,8 -20,-5 z"
         id="path442"
         clip-path="url(#clipPath1097)"
         style="fill:#000000;fill-opacity:1" /><path
         d="m 1873,2143 c -42,-28 -20,-93 31,-93 45,0 59,41 30,85 -19,29 -30,30 -61,8 z m 55,-33 c 12,0 13,-3 5,-11 -6,-6 -9,-19 -5,-28 5,-13 3,-14 -10,-3 -8,7 -24,9 -33,5 -13,-4 -16,-3 -11,6 4,6 2,18 -4,26 -10,12 -9,15 3,15 8,0 18,8 23,18 7,15 8,14 11,-5 3,-13 12,-23 21,-23 z"
         id="path444"
         style="fill:#000000;fill-opacity:1" /><path
         d="m 1486,2111 c -16,-18 -16,-19 18,-23 40,-5 44,1 18,26 -18,15 -20,15 -36,-3 z"
         id="path446"
         style="fill:#000000;fill-opacity:1" /><path
         d="m 1480,1945 c -8,-2 -51,-9 -95,-16 -44,-6 -84,-14 -89,-17 -5,-3 46,-20 115,-39 100,-27 155,-35 284,-43 88,-6 175,-11 194,-13 l 34,-3 -29,23 c -47,37 -166,92 -223,103 -50,9 -155,12 -191,5 z m 243,-52 c 20,-8 37,-18 37,-22 0,-11 -163,-1 -222,14 -51,12 -52,13 -28,23 32,15 161,5 213,-15 z"
         id="path448"
         style="fill:#000000;fill-opacity:1" /><path
         d="m 1083,1825 c 52,-30 28,-40 -84,-38 l -104,3 29,-22 c 16,-12 37,-40 47,-62 l 19,-41 v 43 c 0,35 3,42 20,42 10,0 25,-6 32,-14 11,-11 20,-8 56,22 24,19 41,41 38,48 -4,10 3,12 22,9 58,-9 206,-14 187,-6 -11,5 -65,11 -120,15 -55,4 -116,9 -135,12 l -35,5 z"
         id="path450"
         style="fill:#000000;fill-opacity:1" /><path
         d="m 731,1779 c -53,-10 -100,-41 -129,-84 -34,-49 -26,-50 27,-6 59,49 88,61 151,61 65,0 97,-13 148,-63 53,-52 59,-26 6,32 -49,55 -122,76 -203,60 z"
         id="path452"
         style="fill:#000000;fill-opacity:1" /><path
         d="m 2154,1771 c -23,-10 -51,-32 -62,-49 -38,-53 -24,-72 19,-26 83,90 214,84 282,-13 33,-45 43,-49 33,-10 -23,95 -166,146 -272,98 z"
         id="path454"
         style="fill:#000000;fill-opacity:1" /><path
         d="m 1341,1729 c -46,-26 -85,-50 -87,-52 -2,-2 79,-5 180,-6 122,-1 186,1 191,8 9,16 158,14 152,-1 -3,-10 14,-12 77,-8 64,5 89,11 114,29 18,12 32,25 32,29 0,4 -127,4 -282,-1 -156,-4 -299,-6 -318,-5 l -35,3 32,18 c 23,12 56,17 115,18 98,1 93,6 -12,12 -75,4 -76,3 -159,-44 z"
         id="path456"
         style="fill:#000000;fill-opacity:1" /><path
         d="m 2085,1761 c -3,-5 -32,-29 -64,-54 -57,-43 -63,-45 -150,-51 -55,-5 -89,-11 -85,-17 3,-6 0,-16 -6,-24 -11,-13 -17,-12 -45,5 -21,13 -44,19 -60,16 -32,-6 -65,-33 -65,-53 0,-7 -6,-13 -12,-14 -7,0 -22,-2 -33,-5 -11,-2 -60,-4 -110,-5 -49,0 -96,-5 -102,-11 -9,-7 -22,-7 -42,1 -40,17 -103,16 -136,-2 -25,-13 -32,-13 -51,0 -26,17 -91,24 -120,13 -12,-5 -49,-6 -82,-3 -57,5 -63,8 -81,39 -22,37 -45,42 -79,19 -20,-15 -24,-14 -51,6 -33,25 -78,20 -106,-11 -15,-17 -16,-32 -10,-117 4,-54 13,-110 21,-124 l 13,-26 -170,-5 c -108,-3 -174,-9 -182,-17 -8,-8 55,-11 254,-10 145,1 253,4 239,6 -50,8 -55,12 -37,31 14,14 21,14 37,4 38,-23 76,-15 109,24 l 30,37 34,-37 c 25,-27 43,-36 68,-37 53,-2 72,2 97,18 21,13 26,13 49,-2 17,-11 43,-16 77,-15 28,1 119,2 201,1 95,0 158,4 173,11 18,9 28,9 42,0 30,-18 84,-14 113,8 25,20 25,20 50,0 22,-18 39,-19 203,-17 99,2 184,1 191,-1 8,-3 11,-17 7,-46 -4,-29 -2,-45 8,-53 20,-17 170,-25 262,-14 137,16 101,26 -84,23 -127,-3 -180,0 -180,7 0,8 69,11 234,10 151,-1 241,3 253,10 13,8 -50,10 -234,11 -162,0 -253,4 -253,10 0,6 91,10 253,11 278,1 301,14 42,25 -82,4 -151,8 -153,10 -2,1 3,13 11,26 8,12 24,69 36,125 25,112 21,138 -24,149 -41,10 -74,-4 -99,-44 -28,-44 -78,-64 -119,-47 -17,7 -56,8 -108,4 -44,-4 -94,-3 -110,1 -34,10 -33,10 -58,10 -12,0 -23,11 -30,30 l -10,30 h 55 c 77,0 137,33 169,94 13,25 23,46 20,46 -2,0 -6,-4 -10,-9 z m 286,-270 c -24,-120 -24,-121 -53,-121 -15,0 -28,5 -28,10 0,7 -7,7 -20,0 -12,-6 -33,-10 -48,-8 -26,3 -27,5 -27,60 1,83 48,125 96,83 15,-15 17,-12 23,39 7,53 9,55 39,58 18,2 35,2 38,1 3,-1 -6,-56 -20,-122 z m -1660,32 1,-78 36,78 c 24,53 41,77 53,77 15,0 10,-17 -31,-112 l -49,-113 -39,-3 -40,-3 -6,63 c -3,35 -7,87 -9,116 l -4,52 h 43 44 z m 1019,0 c 0,-42 4,-73 8,-67 5,5 21,39 36,77 22,51 33,67 48,67 12,0 18,-5 15,-12 -3,-7 -26,-58 -51,-113 l -46,-100 -40,-3 c -36,-3 -40,-1 -41,20 0,13 -4,65 -7,116 l -7,92 h 43 42 z m -860,-10 c 0,-15 1,-15 18,0 20,18 62,23 62,8 0,-5 -3,-23 -6,-40 -8,-36 -39,-43 -47,-10 -8,30 -25,15 -32,-29 -12,-69 -14,-72 -52,-72 -32,0 -35,2 -29,23 3,12 11,48 17,80 11,53 13,57 40,57 20,0 29,-5 29,-17 z m 242,0 c 27,-25 24,-88 -7,-118 -19,-20 -34,-25 -74,-25 -43,0 -53,4 -67,25 -22,34 -11,88 23,115 32,25 99,27 125,3 z m 193,3 c 32,-23 27,-92 -8,-122 -34,-29 -106,-33 -131,-8 -18,18 -21,76 -5,105 20,37 107,52 144,25 z m 117,3 c 3,-9 9,-9 25,0 30,16 60,14 71,-5 8,-14 10,-14 21,0 17,20 55,21 71,1 10,-12 10,-28 0,-80 l -12,-65 h -35 c -31,0 -35,2 -30,23 18,75 19,97 4,97 -11,0 -19,-17 -28,-60 -11,-59 -12,-60 -44,-60 h -32 l 13,57 c 7,32 10,61 5,66 -14,14 -31,-19 -38,-72 l -6,-51 h -39 c -34,0 -39,3 -33,18 4,9 12,45 17,80 10,59 12,62 39,62 15,0 29,-5 31,-11 z m 542,-2 c 12,-9 17,-23 14,-42 -3,-29 -6,-30 -55,-33 -44,-3 -53,-6 -53,-22 0,-26 15,-33 30,-15 7,8 25,15 41,15 23,0 27,-3 22,-17 -10,-27 -23,-33 -73,-33 -53,0 -66,7 -78,40 -13,37 4,87 36,104 34,19 92,20 116,3 z m 108,2 c 3,-9 9,-9 25,0 30,15 60,14 70,-4 5,-8 4,-44 -1,-80 l -10,-65 h -38 c -21,0 -38,1 -38,3 0,1 7,27 15,57 15,55 8,83 -14,56 -6,-7 -14,-37 -18,-65 l -6,-51 h -39 c -32,0 -39,3 -34,15 3,9 11,45 18,80 11,61 13,65 39,65 15,0 29,-5 31,-11 z"
         id="path458"
         style="fill:#000000;fill-opacity:1" /><path
         d="m 2272,1483 c -15,-29 -23,-71 -14,-77 15,-9 29,9 36,46 7,40 -7,60 -22,31 z"
         id="path460"
         style="fill:#000000;fill-opacity:1" /><path
         d="m 1042,1497 c -18,-21 -27,-92 -14,-101 17,-10 33,31 30,76 -3,36 -5,39 -16,25 z"
         id="path462"
         style="fill:#000000;fill-opacity:1" /><path
         d="m 1220,1459 c -6,-23 -9,-48 -5,-57 10,-26 33,6 41,56 5,34 4,42 -9,42 -10,0 -20,-15 -27,-41 z"
         id="path464"
         style="fill:#000000;fill-opacity:1" /><path
         d="m 1891,1491 c -15,-27 -14,-31 9,-31 13,0 20,7 20,19 0,28 -17,35 -29,12 z"
         id="path466"
         style="fill:#000000;fill-opacity:1" /><path
         d="m 1084,1729 c -23,-26 -25,-29 -7,-20 12,6 46,11 75,11 l 53,-1 -24,-19 -23,-20 h 26 c 20,0 147,58 165,76 2,2 -50,4 -115,4 h -120 z"
         id="path468"
         style="fill:#000000;fill-opacity:1" /><path
         d="m 2432,1702 c 17,-40 25,-49 37,-43 9,5 30,9 46,9 17,1 48,8 69,16 l 39,14 -54,11 c -100,22 -105,21 -54,-4 35,-17 43,-25 28,-25 -34,0 -75,19 -105,47 l -28,27 z"
         id="path470"
         style="fill:#000000;fill-opacity:1" /><path
         d="m 1170,1648 c 26,-11 311,-19 390,-10 99,11 0,21 -205,21 -159,0 -204,-3 -185,-11 z"
         id="path472"
         style="fill:#000000;fill-opacity:1" /><path
         d="m 274,1286 c 11,-9 29,-16 40,-17 56,-1 89,-8 123,-25 32,-16 60,-19 173,-18 74,1 146,6 160,12 19,8 -10,11 -130,13 -85,1 -168,5 -185,9 -17,5 50,7 156,7 143,-2 186,1 186,11 0,9 -58,12 -253,12 -139,0 -261,3 -271,6 -16,5 -16,4 1,-10 z"
         id="path474"
         style="fill:#000000;fill-opacity:1" /><path
         d="m 2005,1210 c -4,-6 -10,-8 -14,-5 -5,2 -34,-22 -65,-55 -32,-33 -59,-60 -62,-60 -2,0 -12,-8 -22,-17 -37,-35 -69,-60 -103,-79 -19,-10 -36,-22 -39,-25 -10,-13 -81,-49 -95,-49 -8,0 -15,-4 -15,-8 0,-10 -68,-32 -99,-32 -11,0 -21,5 -21,11 0,5 -4,7 -10,4 -5,-3 -29,5 -53,18 -82,46 -92,52 -97,57 -3,3 -22,14 -43,25 -21,11 -47,28 -57,38 -11,9 -22,17 -25,17 -3,0 -40,34 -81,75 -42,41 -79,73 -84,70 -5,-3 -11,-1 -15,5 -17,27 -95,-4 -95,-38 0,-27 94,-144 182,-227 113,-106 251,-195 357,-230 62,-20 93,-14 196,37 149,75 281,183 387,316 70,89 80,118 48,144 -24,20 -65,24 -75,8 z m 75,-27 c 0,-15 -113,-153 -172,-209 -111,-106 -253,-198 -366,-238 -41,-15 -44,-14 -113,15 -169,72 -342,212 -463,374 l -38,50 39,3 c 33,3 41,-1 62,-30 46,-62 186,-193 259,-242 41,-27 106,-62 145,-78 l 70,-30 56,23 c 135,55 285,166 381,280 29,35 55,69 57,76 5,13 83,19 83,6 z M 1269,960 c 77,-51 201,-110 233,-110 73,1 261,114 382,229 63,61 72,66 40,28 -78,-95 -204,-189 -341,-254 l -74,-36 -68,27 c -122,48 -293,176 -372,279 -23,29 -7,17 52,-39 46,-44 113,-100 148,-124 z"
         id="path476"
         clip-path="url(#clipPath988)"
         style="fill:#000000;fill-opacity:1" /></g><path
       style="fill:#000000;stroke-width:0.264583"
       id="path590"
       d="m 38.999303,14.71094 c 0.05967,-0.001 0.119274,2.7e-4 0.178554,0.007 0.02713,0.004 0.05458,0.008 0.08142,0.0136 0.01664,0.004 0.03289,0.01 0.04891,0.0155 0.0047,0.002 0.0095,0.004 0.01405,0.006 0.0061,0.003 0.0113,0.007 0.01685,0.0111 0.01701,0.0116 0.03322,0.0241 0.04934,0.0369 0.01439,0.0113 0.02294,0.0178 0.03692,0.029 0.0073,0.006 0.01482,0.0111 0.02101,0.0181 0.0019,0.002 0.0035,0.005 0.0055,0.007 0.0057,0.007 0.01169,0.0132 0.01752,0.0198 0.02614,0.0287 0.04928,0.0598 0.07041,0.0923 0.01445,0.0242 0.02878,0.0484 0.04387,0.0722 0.0042,0.007 0.0028,0.004 0.0049,0.008 0.102738,0.18559 0.365207,0.0403 0.26247,-0.14529 v 0 c -0.0096,-0.017 -0.0049,-0.009 -0.01405,-0.0239 -0.01585,-0.025 -0.03053,-0.0506 -0.04614,-0.0757 -0.02933,-0.0446 -0.0611,-0.0875 -0.09699,-0.12709 -0.01278,-0.0144 -0.03124,-0.0356 -0.04438,-0.0486 -0.02307,-0.0229 -0.05,-0.0413 -0.07513,-0.0617 -0.05133,-0.0403 -0.104598,-0.0798 -0.166897,-0.10146 -0.02545,-0.009 -0.0328,-0.0118 -0.05876,-0.0188 -0.04485,-0.0121 -0.09082,-0.0188 -0.136768,-0.0252 -0.01442,-0.002 -0.0288,-0.003 -0.04324,-0.005 -0.05629,-0.005 -0.112887,-0.005 -0.169341,-0.005 -0.21213,0 -0.21213,0.3 0,0.3 z" /><circle
       id="path592"
       style="fill:#000000;stroke:#000000;stroke-width:0.264583"
       cx="46.124348"
       cy="17.201147"
       r="6.9452028e-05" /><path
       style="fill:#000000;stroke-width:0.264583"
       id="path594"
       d="m 45.712753,16.94461 c 0.04112,0.0386 0.0851,0.0739 0.129915,0.10809 0.04762,0.0371 0.09864,0.0692 0.150532,0.0999 0.04701,0.0267 0.09663,0.0481 0.147664,0.0658 0.05077,0.0172 0.100584,0.0376 0.154533,0.0425 0.01738,0.002 0.0349,8e-4 0.05235,0.001 0.05848,-0.003 0.118345,-0.009 0.172569,-0.033 0.03924,-0.0174 0.04513,-0.0247 0.07807,-0.0496 0.04679,-0.0424 0.07679,-0.0979 0.101807,-0.15495 0.01847,-0.0399 0.02686,-0.0827 0.03114,-0.12611 9e-5,-0.0281 0.0079,-0.055 0.01302,-0.0825 0.0055,-0.0382 0.01326,-0.076 0.01977,-0.11394 0.0054,-0.0406 0.01376,-0.0808 0.02074,-0.12119 0.005,-0.0284 0.0073,-0.0572 0.0093,-0.0859 0.01402,-0.21167 -0.285324,-0.2315 -0.299344,-0.0198 v 0 c -0.0011,0.0183 -0.0024,0.0366 -0.0056,0.0547 -0.007,0.0406 -0.01543,0.0809 -0.02082,0.12174 -0.0062,0.0366 -0.01394,0.073 -0.01905,0.10981 -0.0066,0.0363 -0.01617,0.0724 -0.01675,0.10955 -0.0011,0.0128 -0.0016,0.0238 -0.0081,0.0354 -0.0029,0.007 -0.0042,0.0109 -0.008,0.0182 -0.0039,0.008 -0.0094,0.0143 -0.01196,0.0225 -2.64e-4,0.001 0.0044,0.003 0.0038,5.2e-4 0.0013,8e-4 0.0049,2.7e-4 0.0043,0.002 -0.0019,0.004 -0.01688,0.007 -0.01913,0.007 -0.0163,0.003 -0.02918,0.004 -0.04569,0.006 -0.0066,8e-4 -0.01336,0.003 -0.01998,0.002 -0.03102,-0.005 -0.05936,-0.022 -0.08971,-0.0295 -0.03193,-0.0108 -0.06282,-0.0241 -0.09241,-0.0403 -0.04179,-0.0247 -0.08309,-0.0502 -0.121351,-0.0802 -0.04028,-0.0306 -0.07948,-0.0626 -0.116395,-0.0972 -0.161063,-0.13806 -0.356299,0.0897 -0.195236,0.22778 z" /><circle
       id="path596"
       style="fill:#000000;stroke:#000000;stroke-width:0.264583"
       cx="46.652706"
       cy="16.707548"
       r="6.9452028e-05" /><path
       style="fill:#000000;stroke-width:0.264583"
       id="path598"
       d="m 46.572744,16.88037 c 5.29e-4,5.3e-4 0.0027,0.002 0.0019,0.001 -0.01386,-0.006 0.01222,0.009 0.0041,0.004 0.160179,0.13908 0.356865,-0.0875 0.196683,-0.22652 v 0 c -0.01543,-0.0129 -0.03104,-0.0258 -0.04837,-0.0362 -0.181903,-0.10914 -0.336251,0.14811 -0.15435,0.25725 z" /><path
       style="fill:#000000;stroke-width:0.264583"
       id="path600"
       d="m 45.919215,17.05351 c 0.0057,0.0215 0.01254,0.0427 0.0182,0.0642 0.01064,0.0344 0.02775,0.0656 0.04744,0.0955 0.01746,0.0269 0.04063,0.0485 0.06605,0.0677 0.0264,0.0154 0.01437,0.009 0.04042,0.0236 0.187542,0.0991 0.327745,-0.16608 0.140203,-0.26522 v 0 c 7.94e-4,5.3e-4 0.0029,0.002 0.0021,10e-4 -0.0044,-0.003 -0.04001,-0.0238 -0.0093,-0.005 0.0019,0.002 0.0075,0.006 0.0057,0.005 -0.0024,-0.002 -0.0091,-0.008 -0.0071,-0.006 0.0036,0.004 0.0083,0.008 0.01217,0.0121 0.0016,0.002 0.0055,0.007 0.0041,0.005 -0.0021,-0.003 -0.0038,-0.005 -0.0061,-0.008 -0.0011,-10e-4 0.0016,0.003 0.0024,0.004 -0.01619,-0.0246 0.0042,0.009 -0.0072,-0.0109 -0.0016,-0.003 -0.0041,-0.0113 -0.0041,-0.008 1.8e-5,0.004 0.0021,0.007 0.003,0.011 -0.0062,-0.0231 -0.01339,-0.046 -0.01953,-0.0691 -0.05828,-0.20397 -0.346733,-0.12155 -0.288456,0.0824 z" /><path
       style="fill:#000000;stroke-width:0.264583"
       id="path602"
       d="m 43.193279,15.90018 c -0.02069,0.048 -0.03995,0.0968 -0.06052,0.1449 -0.01783,0.0436 -0.03718,0.0866 -0.0539,0.13066 -0.01212,0.0331 -0.02347,0.0665 -0.03213,0.1007 -0.0066,0.0324 -0.01098,0.0656 -0.0087,0.0988 5.29e-4,0.008 0.0016,0.015 0.0024,0.0225 0.0028,0.0166 0.0044,0.0332 0.0053,0.05 0.0011,0.0167 -2.38e-4,0.0339 0.0033,0.0504 0.0024,0.0114 0.0055,0.0226 0.0083,0.0339 0.0021,0.005 0.0042,0.0106 0.0061,0.016 5.29e-4,0.001 -0.0021,-0.005 -0.0019,-0.003 0.0011,0.005 0.0024,0.0101 0.0036,0.0151 0.0068,0.0264 0.01828,0.0513 0.02902,0.0763 0.01278,0.0297 0.03099,0.0563 0.05024,0.082 0.0164,0.0242 0.03721,0.0446 0.05845,0.0645 0.02096,0.0197 0.04477,0.0358 0.06865,0.0516 0.03027,0.0187 0.05894,0.0398 0.08866,0.0594 0.02405,0.0173 0.04909,0.0329 0.07513,0.047 0.02635,0.0122 0.0524,0.025 0.0783,0.0382 0.03297,0.0175 0.06743,0.0314 0.102594,0.0438 0.04038,0.0125 0.08076,0.0252 0.1215,0.0366 0.03947,0.0121 0.07977,0.02 0.120809,0.0242 0.02893,0.002 0.05798,0.003 0.08699,0.003 0.02413,-10e-6 0.04821,9e-5 0.0723,-10e-4 0.02625,-0.004 0.05254,-0.006 0.07904,-0.008 0.03513,-0.002 0.06965,-0.008 0.103957,-0.0152 0.02434,-0.005 0.04816,-0.0115 0.07163,-0.0194 0.01302,-0.004 0.0076,-0.004 0.01381,-0.004 0.0076,-0.001 0.0024,-2.6e-4 0.01566,-0.004 0.205984,-0.0507 0.134268,-0.34202 -0.07171,-0.29131 v 0 c -0.01281,0.003 -0.0047,0.001 -0.02442,0.006 -0.02278,0.007 -0.04493,0.0154 -0.06839,0.0196 -0.01863,0.004 -0.03705,0.008 -0.0562,0.009 -0.02752,0.002 -0.05584,0.002 -0.08296,0.008 -5.29e-4,9e-5 0.0011,1.7e-4 0.0016,2.5e-4 -0.005,0.001 -7.94e-4,2.7e-4 -0.01243,2.7e-4 -0.01394,3e-5 -0.02788,10e-5 -0.04181,1.3e-4 -0.01968,10e-6 -0.03937,1.3e-4 -0.059,-0.001 -0.02389,-0.002 -0.04682,-0.008 -0.06978,-0.0149 -0.03405,-0.009 -0.06741,-0.0206 -0.101243,-0.0303 -0.02267,-0.008 -0.04488,-0.0165 -0.06597,-0.0281 -0.02394,-0.0122 -0.04783,-0.0245 -0.0725,-0.0351 -0.01865,-0.01 -0.03518,-0.0218 -0.05256,-0.0336 -0.02943,-0.0191 -0.05743,-0.0403 -0.08742,-0.0585 -0.0099,-0.007 -0.02013,-0.0128 -0.02925,-0.0205 -0.01013,-0.009 -0.01664,-0.0142 -0.02421,-0.0266 -0.0073,-0.009 -0.01013,-0.0132 -0.01386,-0.0196 -0.0037,-0.008 -0.0073,-0.0168 -0.01087,-0.0252 -0.0013,-0.003 -0.0019,-0.007 -0.0039,-0.01 -0.0019,-0.002 0.0026,0.007 0.0024,0.009 -0.0046,-0.0192 -0.0093,-0.0382 -0.0163,-0.0568 -5.29e-4,-0.002 0.0011,0.003 0.0013,0.004 0.0013,0.007 0.0028,0.0143 0.0042,0.0215 9.2e-5,5.3e-4 -2.01e-4,-0.002 -2.65e-4,-10e-4 -1.85e-4,10e-4 -1.8e-5,0.005 -6.9e-5,0.004 -5.29e-4,-0.0102 -1.88e-4,-0.0205 -0.0011,-0.0308 -0.0013,-0.024 -0.0034,-0.0479 -0.0072,-0.0716 -2.64e-4,0.0127 -0.0011,-0.01 5.29e-4,-0.0132 0.004,-0.0224 0.01482,-0.0433 0.02114,-0.065 0.01508,-0.0402 0.03321,-0.0791 0.0492,-0.11895 0.0249,-0.0584 0.04942,-0.11706 0.07193,-0.17644 0.06095,-0.20318 -0.226394,-0.28939 -0.287349,-0.0862 z" /><path
       style="fill:#000000;stroke-width:0.264583"
       id="path604"
       d="m 43.309876,15.94621 c -0.02779,0.0416 -0.04833,0.087 -0.06578,0.13366 -0.01826,0.0483 -0.02795,0.0989 -0.03327,0.15013 -0.0028,0.0305 -0.0028,0.0612 -0.0028,0.0918 1.11e-4,0.0262 2.12e-4,0.0524 2.6e-4,0.0785 -0.0013,0.032 0.0028,0.0637 0.0076,0.0953 0.0046,0.0316 0.01127,0.0627 0.01979,0.0935 0.0096,0.0309 0.02032,0.0611 0.03463,0.0902 7.94e-4,0.002 0.0016,0.003 0.0021,0.004 2.65e-4,0.001 -0.0019,-0.004 -0.0016,-0.003 0.01114,0.0239 0.02201,0.0414 0.03813,0.062 0.0052,0.006 0.01024,0.0128 0.01511,0.0194 1.32e-4,1.8e-4 0.0024,0.004 0.0024,0.004 8.2e-5,2.7e-4 -5.29e-4,-5.3e-4 -7.93e-4,-7.9e-4 -0.0092,-0.0146 0.01214,0.0223 0.01236,0.0227 5.29e-4,10e-4 -0.0026,-0.004 -0.0021,-0.003 0.0011,0.003 0.0021,0.005 0.0033,0.008 0.0072,0.016 0.01214,0.0237 0.01632,0.0347 -2.65e-4,-5.3e-4 -5.3e-4,-0.001 -7.94e-4,-0.002 0.07179,0.19961 0.354092,0.0981 0.282297,-0.10153 v 0 c -0.0016,-0.004 -0.0034,-0.009 -0.005,-0.0133 -0.0056,-0.0129 -0.01132,-0.0259 -0.01786,-0.0383 -0.01003,-0.0229 -0.01908,-0.0385 -0.02709,-0.0543 -0.01243,-0.0212 -0.02619,-0.0416 -0.04207,-0.0604 -0.0089,-0.0113 7.94e-4,0.003 0.0016,0.005 0.0011,0.002 0.0039,0.009 0.0028,0.007 -0.01252,-0.0284 -0.0027,-0.008 -0.01283,-0.0285 1.56e-4,5.3e-4 5.29e-4,10e-4 5.29e-4,0.002 -1.03e-4,2.6e-4 -5.29e-4,-5.3e-4 -7.94e-4,-0.001 -7.94e-4,-0.002 -0.0013,-0.004 -0.0021,-0.005 -0.0033,-0.01 -0.0061,-0.0198 -0.01013,-0.0294 -0.0057,-0.0192 -0.0091,-0.0389 -0.01214,-0.0586 -0.0026,-0.0164 -0.0055,-0.0323 -0.004,-0.0491 -5e-5,-0.0262 -1.48e-4,-0.0523 -2.59e-4,-0.0785 -4.2e-5,-0.0205 -2.43e-4,-0.041 0.0013,-0.0615 0.0024,-0.0261 0.0068,-0.0518 0.01632,-0.0764 0.0088,-0.0248 0.01929,-0.0487 0.03382,-0.0708 0.117668,-0.1765 -0.131945,-0.34291 -0.249616,-0.16641 z" /><path
       style="fill:#000000;stroke-width:0.264583"
       id="path606"
       d="m 43.79931,17.01068 c 0.03157,-0.0102 0.06351,-0.0193 0.09526,-0.0289 0.03702,-0.0112 0.07456,-0.0206 0.112128,-0.0297 0.03848,-0.009 0.07644,-0.0193 0.113946,-0.0315 0.02405,-0.009 0.04865,-0.0165 0.07354,-0.023 0.0379,-0.0103 0.07375,-0.0266 0.110207,-0.041 0.03794,-0.0132 0.07024,-0.0373 0.104704,-0.0571 0.02735,-0.0156 0.05389,-0.0322 0.07902,-0.0513 0.01714,-0.0148 0.0365,-0.026 0.05497,-0.0393 0.02008,-0.0115 0.03874,-0.0255 0.05919,-0.0363 0.01788,-0.008 0.03629,-0.0139 0.05558,-0.017 0.02397,-0.003 0.04805,-0.003 0.07207,-0.001 0.02188,0.002 0.04337,0.006 0.06378,0.0143 0.0052,0.003 0.01087,0.005 0.01606,0.008 5.3e-4,2.7e-4 -0.0024,-7.9e-4 -0.0021,-2.3e-4 0.0021,0.003 0.02148,0.0165 0.02556,0.0197 0.01569,0.0103 0.02603,0.0249 0.03773,0.0391 0.0069,0.009 0.0033,0.004 0.01085,0.0146 0.126715,0.17012 0.367311,-0.009 0.240594,-0.17921 v 0 c -0.01183,-0.0159 -0.0054,-0.007 -0.01945,-0.0256 -0.02617,-0.0319 -0.05348,-0.0628 -0.0872,-0.087 -0.0367,-0.0281 -0.07395,-0.0546 -0.117928,-0.0703 -0.0209,-0.008 -0.02577,-0.01 -0.04804,-0.0157 -0.03282,-0.009 -0.06664,-0.0134 -0.100385,-0.0166 -0.04888,-0.003 -0.09797,-0.002 -0.146421,0.006 -0.05173,0.0101 -0.10083,0.0255 -0.147561,0.0503 -0.03001,0.0172 -0.05916,0.0358 -0.08807,0.0548 -0.02154,0.0156 -0.04469,0.029 -0.06475,0.0467 -5.29e-4,0.003 5.3e-5,5.3e-4 -0.006,0.005 -0.01257,0.008 -0.02614,0.015 -0.03876,0.0233 -0.0172,0.0101 -0.01601,0.009 -0.03264,0.0198 -0.01016,0.006 -0.01913,0.0138 -0.03092,0.0174 -0.02532,0.01 -0.05029,0.0211 -0.07603,0.0298 -0.03055,0.008 -0.06084,0.0168 -0.09041,0.0279 -0.03039,0.01 -0.06122,0.0184 -0.09244,0.0254 -0.04301,0.0105 -0.08596,0.0213 -0.128341,0.0342 -0.04216,0.0129 -0.08486,0.0242 -0.125984,0.0402 -0.19498,0.0836 -0.0768,0.3593 0.118176,0.27574 z" /><path
       style="fill:#000000;stroke-width:0.264583"
       id="path608"
       d="m 50.856639,14.19763 c -0.02402,0.0132 -0.04598,0.0297 -0.06985,0.0432 5.29e-4,-8e-4 0.0021,-0.001 0.0016,-0.002 -5.29e-4,-7.9e-4 -0.0021,-5.3e-4 -0.0032,-2.6e-4 -0.0056,0.001 -0.01109,0.002 -0.01662,0.004 -0.02741,0.006 -0.05481,0.012 -0.08217,0.0181 -0.05461,0.0135 -0.111228,0.0199 -0.164433,0.0389 -0.01103,0.004 -0.0217,0.009 -0.03256,0.0132 -0.06177,0.0314 -0.111058,0.08 -0.154823,0.13279 -0.028,0.0344 -0.04629,0.075 -0.06306,0.11565 -0.0141,0.0356 -0.02474,0.0723 -0.03304,0.10961 -0.0074,0.0272 -0.0081,0.0556 -0.01413,0.083 -0.0074,0.0341 -0.01138,0.0688 -0.01405,0.10353 -0.0011,0.0278 -0.0024,0.0556 -0.0038,0.0834 -0.0024,0.0359 -0.0027,0.0716 -1.91e-4,0.10748 0.0029,0.0398 0.01056,0.0789 0.02064,0.11745 0.01495,0.0503 0.03681,0.0981 0.06003,0.14498 0.02098,0.0416 0.04702,0.08 0.07559,0.11662 0.02643,0.0307 0.05384,0.0605 0.07888,0.0923 0.02334,0.0287 0.05137,0.053 0.07879,0.0777 0.0048,0.004 0.0096,0.008 0.01437,0.0123 0.161431,0.13763 0.356061,-0.0907 0.194633,-0.22829 v 0 c -0.0028,-0.002 -0.0055,-0.005 -0.0082,-0.007 -0.01503,-0.0135 -0.03045,-0.0268 -0.04457,-0.0413 -0.02498,-0.0313 -0.05101,-0.0618 -0.07807,-0.0913 -0.0163,-0.0204 -0.03091,-0.0418 -0.04293,-0.065 -0.01463,-0.029 -0.02824,-0.0587 -0.0389,-0.0894 -0.0061,-0.0205 -0.0092,-0.0418 -0.01119,-0.0631 -0.0024,-0.0223 2.6e-5,-0.0448 7.93e-4,-0.0672 0.0013,-0.0258 0.0028,-0.0516 0.0035,-0.0774 0.0016,-0.0234 0.0043,-0.0466 0.0095,-0.0695 0.0046,-0.0255 0.0074,-0.0512 0.01281,-0.0765 0.0039,-0.0202 0.01037,-0.0397 0.01738,-0.059 0.0039,-0.01 0.0081,-0.0194 0.01251,-0.029 7.94e-4,-0.002 0.0016,-0.003 0.0021,-0.004 6.6e-5,-2.2e-4 -7.94e-4,-2.2e-4 -5.29e-4,-5.3e-4 0.0011,-0.002 0.0026,-0.004 0.0039,-0.006 0.0082,-0.0105 0.01707,-0.0201 0.02649,-0.0296 0.0032,-0.003 0.0065,-0.006 0.0098,-0.01 0.0024,-0.002 0.0057,-0.004 0.0074,-0.007 5.29e-4,-10e-4 -0.0021,-2.7e-4 -0.0033,-5.3e-4 0.01283,-0.007 0.0254,-0.01 0.03978,-0.0129 0.03492,-0.008 0.07018,-0.0141 0.105026,-0.0224 0.03309,-0.007 0.02647,-0.006 0.05819,-0.0129 0.03152,-0.007 0.06344,-0.013 0.09374,-0.0245 0.01114,-0.004 0.02167,-0.01 0.0325,-0.0149 0.02749,-0.016 0.05356,-0.0341 0.08108,-0.05 0.17897,-0.11389 0.01791,-0.36699 -0.161062,-0.2531 z" /><path
       style="fill:#000000;stroke-width:0.264583"
       id="path610"
       d="m 50.651883,14.51143 c -0.0011,0.002 -0.0052,0.008 -0.0032,0.007 0.0024,-0.002 0.0032,-0.005 0.005,-0.008 0.0038,-0.005 0.0091,-0.0105 0.01357,-0.0155 0.01167,-0.0122 0.02138,-0.0266 0.03367,-0.0383 0.0011,-0.001 -0.0019,0.002 -0.0029,0.004 -5.29e-4,5.3e-4 -0.0011,10e-4 -0.0013,0.002 -9.3e-5,2.6e-4 5.29e-4,-9e-5 7.94e-4,-2.6e-4 0.0031,-0.002 0.0061,-0.004 0.0091,-0.006 0.0093,-0.006 0.01839,-0.0129 0.02775,-0.0191 0.01971,-0.0121 0.04022,-0.0229 0.06027,-0.0344 0.02085,-0.0108 0.04291,-0.0191 0.06474,-0.0277 0.02151,-0.009 0.04347,-0.0167 0.06624,-0.0217 0.03081,-0.008 0.06212,-0.0147 0.09324,-0.0219 0.03069,-0.006 0.06135,-0.0126 0.09187,-0.0196 0.03923,-0.009 0.07867,-0.0169 0.118293,-0.0241 0.0337,-0.009 0.0681,-0.0106 0.102613,-0.0129 0.04005,-0.004 0.02082,-0.002 0.05771,-0.006 0.210687,-0.0247 0.175749,-0.32267 -0.03494,-0.29796 v 0 c -0.02938,0.003 -0.01508,0.002 -0.04292,0.005 -0.04551,0.003 -0.09101,0.007 -0.135562,0.017 -0.04448,0.008 -0.08875,0.0169 -0.132791,0.0271 -0.03038,0.007 -0.06094,0.0132 -0.09146,0.0195 -0.032,0.007 -0.06424,0.0137 -0.09593,0.0225 -0.0363,0.009 -0.07209,0.0198 -0.106579,0.0344 -0.03561,0.0141 -0.07151,0.028 -0.10486,0.0471 -0.02558,0.015 -0.05223,0.0283 -0.07691,0.0448 -0.02394,0.0161 -0.04806,0.0322 -0.07045,0.0504 -0.01934,0.0185 -0.03754,0.038 -0.05453,0.0587 -0.02215,0.0252 -0.0431,0.0515 -0.05887,0.0813 -0.09487,0.18974 0.173458,0.3239 0.268327,0.13417 z" /><path
       style="fill:#000000;stroke-width:0.264583"
       id="path612"
       d="m 99.042502,117.121 c 0.01717,0.0435 0.04354,0.0821 0.07095,0.11957 0.02455,0.0324 0.05127,0.0633 0.08255,0.0894 0.0249,0.0208 0.03148,0.0241 0.05779,0.0415 0.04746,0.0293 0.09828,0.0526 0.150218,0.0727 0.06305,0.0244 0.130873,0.03 0.19768,0.0349 0.03959,0.003 0.07928,0.005 0.118724,-10e-4 0.0236,-0.004 0.03606,-0.007 0.05809,-0.0128 0.0533,-0.0151 0.0058,-0.002 0.0075,-2.6e-4 0.0027,0.002 0.0064,0.002 0.0096,0.003 0.0071,0.002 0.01423,0.004 0.02132,0.007 0.05053,0.0172 0.102978,0.0303 0.156818,0.0276 0.01376,-8e-4 0.02739,-0.003 0.04109,-0.004 0.071,-0.0113 0.12336,-0.0452 0.17751,-0.0896 0.0305,-0.0257 0.0578,-0.0551 0.0774,-0.09 0.0153,-0.0273 0.0182,-0.0389 0.028,-0.067 0.0157,-0.0515 0.0181,-0.10528 0.0191,-0.15868 0.002,-0.0427 -0.004,-0.0851 -0.007,-0.12761 -0.003,-0.038 -0.003,-0.0761 -0.003,-0.11421 -2.2e-4,-0.0467 0.004,-0.0931 0.0103,-0.13922 0.0108,-0.07 0.0251,-0.13937 0.0387,-0.20887 0.0405,-0.20822 -0.25393,-0.26555 -0.29447,-0.0573 v 0 c -0.0146,0.075 -0.0301,0.14993 -0.0414,0.22554 -0.008,0.0603 -0.0134,0.12091 -0.0131,0.18183 2.7e-4,0.0456 5.3e-4,0.0912 0.004,0.13667 0.003,0.0324 0.007,0.0649 0.006,0.0975 -5.3e-4,0.0236 -7.9e-4,0.0474 -0.004,0.0708 -2.7e-4,0.002 -0.001,0.004 -0.001,0.005 2e-4,0.002 0.004,-0.003 0.004,-0.002 5.3e-4,0.004 -0.0152,0.0159 -0.0151,0.0162 -0.0074,0.006 -0.01527,0.0121 -0.0226,0.0185 -7.94e-4,7.9e-4 -0.0024,10e-4 -0.0021,0.002 5.29e-4,0.001 0.004,-2.7e-4 0.0033,5.3e-4 -0.0013,0.001 -0.0038,0.001 -0.0057,0.002 -0.0058,0.005 -0.01738,0.002 -0.02357,8e-4 -0.01199,-0.003 -0.03444,-0.0104 -0.04512,-0.0137 -0.02125,-0.006 -0.04882,-0.0154 -0.07024,-0.0192 -0.0443,-0.008 -0.08924,-0.008 -0.132369,0.006 -0.0078,0.002 -0.01622,0.005 -0.02432,0.007 -0.01818,0.002 -0.03652,-0.002 -0.0547,-0.002 -0.02477,-0.002 -0.04952,-0.003 -0.07411,-0.007 -0.0011,-1.3e-4 -0.0214,-0.003 -0.02535,-0.005 -0.0042,-0.001 -0.0083,-0.003 -0.01236,-0.004 -0.03277,-0.0123 -0.06471,-0.027 -0.09498,-0.0447 -0.0039,-0.002 -0.0159,-0.009 -0.02006,-0.0127 -0.01614,-0.0125 -0.02918,-0.0281 -0.0415,-0.0442 -0.01402,-0.0188 -0.02841,-0.0376 -0.03668,-0.0597 -0.08356,-0.19498 -0.359304,-0.0768 -0.275743,0.11818 z"
       clip-path="url(#clipPath1251)"
       transform="translate(-46.248941,-99.73411)" /><path
       style="fill:#000000;stroke-width:0.264583"
       id="path614"
       d="m 100.09154,117.22805 c 0.001,0.004 0.002,0.008 0.004,0.0118 8e-4,10e-4 -9e-5,-0.003 -1.9e-4,-0.005 -2.7e-4,-0.005 -8e-4,-0.009 -10e-4,-0.0138 -2.7e-4,-0.0152 10e-4,-0.0308 0.002,-0.046 0.002,-0.0369 0.008,-0.0732 0.0157,-0.10931 0.008,-0.0409 0.0165,-0.0815 0.0234,-0.12259 0.005,-0.0245 0.009,-0.0495 0.0164,-0.0734 0.009,-0.0319 0.0155,-0.0647 0.0229,-0.0971 0.007,-0.0275 0.01,-0.0559 0.013,-0.084 0.004,-0.0212 0.003,-0.0428 0.006,-0.064 0.0269,-0.21041 -0.270652,-0.24848 -0.297571,-0.0381 v 0 c -0.0027,0.0227 -0.0038,0.0454 -0.0067,0.068 -0.0019,0.0174 -0.0029,0.0349 -0.0076,0.052 -0.0061,0.0271 -0.01114,0.0545 -0.01881,0.0812 -0.0096,0.0349 -0.01765,0.0703 -0.02376,0.10597 -0.0062,0.0376 -0.01468,0.0749 -0.02156,0.11239 -0.0099,0.0492 -0.01849,0.0987 -0.02106,0.14896 -0.0035,0.0561 -0.0055,0.113 0.0099,0.16765 0.06708,0.20125 0.351681,0.10638 0.284601,-0.0949 z"
       clip-path="url(#clipPath1261)"
       transform="translate(-46.248941,-99.73411)" /><path
       style="fill:#ff6600;stroke-width:0.264583"
       id="path616"
       d="m 99.178572,117.24008 c 0.0097,0.0299 0.02461,0.0577 0.03999,0.085 0.01164,0.0202 0.02357,0.04 0.03869,0.0578 0.0087,0.0103 0.01749,0.0185 0.02697,0.0277 0.0079,0.0101 0.02045,0.0154 0.02921,0.0245 1.77e-4,1.9e-4 -7.94e-4,-5.3e-4 -7.94e-4,-2.6e-4 0.0013,0.002 0.0031,0.003 0.0047,0.005 0.01125,0.0116 0.02148,0.0247 0.03488,0.0339 0.01101,0.008 0.0227,0.0142 0.03406,0.0212 0.03718,0.0183 0.07772,0.0269 0.118525,0.0321 0.03168,0.004 0.06361,0.002 0.09539,0.003 0.0136,8e-4 0.02684,0.004 0.04014,0.007 0.02784,0.006 0.0561,0.009 0.08443,0.0119 0.02363,0.002 0.04732,0.002 0.07099,0.002 0.02458,7.9e-4 0.04902,-0.001 0.07334,-0.005 0.02503,-0.003 0.04943,-0.01 0.07369,-0.0162 0.02874,-0.008 0.05636,-0.0187 0.08284,-0.0323 0.0201,-0.0105 0.038,-0.0245 0.0552,-0.0391 0.15988,-0.13942 -0.0373,-0.36552 -0.19714,-0.22609 v 0 c -0.0024,0.003 0.0044,-0.003 5.29e-4,7.9e-4 0.0013,-5.3e-4 0.0035,-10e-4 0.0024,-5.3e-4 -0.0074,0.004 -0.01593,0.005 -0.02371,0.008 -0.01204,0.003 -0.02402,0.007 -0.03652,0.008 -0.0021,2.6e-4 -0.0043,5.3e-4 -0.0064,10e-4 -0.0013,1.8e-4 -0.0047,1.3e-4 -0.0036,5.3e-4 0.0016,5.3e-4 0.0072,4e-5 0.0054,1.5e-4 -0.0083,5.3e-4 -0.01669,-2.6e-4 -0.025,2e-5 -0.01566,-4e-5 -0.03137,-4e-5 -0.04702,-7.9e-4 -0.01669,-10e-4 -0.03331,-0.004 -0.04969,-0.007 -0.02946,-0.006 -0.05908,-0.0113 -0.0892,-0.0124 -0.02387,-7.9e-4 -0.04778,-5.3e-4 -0.07165,-0.002 -0.004,-1.2e-4 -0.003,3e-5 -0.0078,-7.9e-4 -0.0021,-2.6e-4 -0.01177,-0.003 -0.0087,-5.3e-4 0.0066,0.005 0.01326,0.009 0.01968,0.0139 0.0016,0.001 0.0027,0.002 0.004,0.004 7.93e-4,8e-4 0.0035,0.004 0.0026,0.003 -0.0047,-0.005 -0.009,-0.01 -0.01371,-0.0147 -0.0096,-0.01 -0.01921,-0.0198 -0.02966,-0.0289 -0.0043,-0.004 -0.0084,-0.008 -0.01347,-0.0108 -2.46e-4,-1.2e-4 2.22e-4,5.3e-4 2.64e-4,8e-4 -0.01135,-0.0109 -0.0021,-10e-4 -1.53e-4,0.003 5.29e-4,0.001 -0.0016,-0.002 -0.0024,-0.003 -0.0038,-0.006 -0.0071,-0.0124 -0.01101,-0.0185 -0.0054,-0.009 -0.0096,-0.0189 -0.01474,-0.0281 -2.65e-4,-5.3e-4 2.64e-4,0.001 5.29e-4,0.002 7.94e-4,0.003 0.0016,0.005 0.0021,0.008 -0.05828,-0.20397 -0.346733,-0.12155 -0.288456,0.0824 z"
       clip-path="url(#clipPath1127)"
       transform="translate(-46.248941,-99.73411)" /><path
       style="fill:#ff6600;stroke-width:0.0556173"
       d="m 14.656679,42.555778 c -0.03383,-0.103619 -0.284258,-2.954115 -0.422056,-4.804061 -0.06152,-0.825918 -0.136699,-1.80962 -0.167066,-2.186008 -0.03037,-0.376386 -0.05522,-0.758061 -0.05522,-0.848162 v -0.163822 h 1.501667 1.501666 v 1.047668 c 0,1.686314 0.07028,4.410834 0.112549,4.363217 0.02141,-0.0241 0.406447,-0.844709 0.855673,-1.823574 0.932394,-2.031688 1.385144,-2.864612 1.790785,-3.294515 0.250187,-0.265152 0.306533,-0.298881 0.472746,-0.283009 0.168958,0.01614 0.190569,0.03746 0.206508,0.203782 0.03711,0.387181 -0.294394,1.25186 -1.965074,5.125686 -0.57387,1.330642 -1.075904,2.445948 -1.115634,2.478452 -0.03973,0.03251 -0.518102,0.08966 -1.063056,0.126997 -0.544952,0.03734 -1.134298,0.08275 -1.309653,0.10092 -0.243705,0.02524 -0.324723,0.01498 -0.343839,-0.04357 z"
       id="path820" /><path
       style="fill:#ff6600;stroke-width:0.0556173"
       d="m 20.177604,42.560204 c -0.439338,-0.0312 -0.603536,-0.106431 -0.603536,-0.27651 0,-0.05414 0.07369,-0.407723 0.163751,-0.785736 0.09006,-0.37801 0.289552,-1.300475 0.443307,-2.049915 0.153752,-0.749443 0.317431,-1.487763 0.363728,-1.64071 0.1906,-0.629666 0.425838,-0.80667 1.071361,-0.806141 0.708372,5.29e-4 1.016802,0.18696 1.016802,0.614431 0,0.260972 0.04556,0.386372 0.14039,0.386372 0.04008,0 0.238744,-0.135965 0.441476,-0.302139 0.423071,-0.346784 0.699513,-0.491926 1.167858,-0.613164 0.545809,-0.14129 0.989819,-0.08114 1.061198,0.143759 0.05013,0.157954 -0.189079,1.531498 -0.320746,1.841709 -0.124386,0.293058 -0.462426,0.631481 -0.687083,0.687866 -0.331288,0.08315 -0.611905,-0.191121 -0.802892,-0.78473 -0.110871,-0.344601 -0.215262,-0.472747 -0.385114,-0.472747 -0.363887,0 -0.54266,0.415544 -0.857292,1.992712 -0.283874,1.422993 -0.422995,1.785017 -0.749718,1.950969 -0.230315,0.116983 -0.798312,0.161218 -1.46349,0.113974 z"
       id="path822" /><path
       style="fill:#ff6600;stroke-width:0.0556173"
       d="m 27.692342,42.558302 c -0.782984,-0.0392 -1.146051,-0.17825 -1.457341,-0.558136 -0.424849,-0.518475 -0.595072,-1.0166 -0.597294,-1.747893 -0.0036,-1.171128 0.656595,-2.324894 1.603557,-2.802556 1.293117,-0.652272 3.23436,-0.555784 3.988385,0.198241 0.380527,0.380527 0.58021,0.981864 0.58021,1.747256 0,0.955135 -0.30807,1.730983 -0.936265,2.357884 -0.729604,0.728104 -1.388771,0.894945 -3.181252,0.805204 z m 1.011798,-0.880589 c 0.44631,-0.351068 0.731856,-1.73138 0.605071,-2.924887 -0.100216,-0.943408 -0.193662,-1.07879 -0.508643,-0.736928 -0.230952,0.250664 -0.470749,0.773004 -0.608936,1.326428 -0.124442,0.498374 -0.205767,1.671839 -0.140118,2.021779 0.07237,0.385755 0.375639,0.531485 0.652626,0.313608 z"
       id="path824" /><path
       style="fill:#ff6600;stroke-width:0.0556173"
       d="m 34.284827,42.535244 c -0.937363,-0.175623 -1.344202,-0.527691 -1.553419,-1.344293 -0.213897,-0.834866 -0.146246,-1.966693 0.158774,-2.656398 0.389057,-0.879726 1.702716,-1.490231 3.230015,-1.501108 1.593937,-0.01135 2.37948,0.54452 2.586974,1.830615 0.150918,0.935426 -0.219882,2.091187 -0.88397,2.755275 -0.754341,0.754341 -2.285421,1.15066 -3.538374,0.915909 z m 1.091147,-0.754814 c 0.448387,-0.239969 1.008912,-1.955991 1.018723,-3.118768 0.0042,-0.501052 -0.08957,-0.659667 -0.390086,-0.659667 -0.48669,0 -0.932447,0.839634 -1.162796,2.19026 -0.09875,0.579027 -0.108252,1.076378 -0.02474,1.295998 0.12319,0.324017 0.313513,0.423508 0.558911,0.292177 z"
       id="path826" /><path
       style="fill:#ff6600;stroke-width:0.0556173"
       d="m 39.722681,42.566798 c -0.646062,-0.04209 -0.739145,-0.109622 -0.637783,-0.462696 0.214347,-0.746619 0.371382,-1.466855 0.567029,-2.600639 0.120795,-0.70003 0.260151,-1.434106 0.309681,-1.631276 0.183452,-0.730334 0.413155,-0.899856 1.165778,-0.860353 0.530053,0.02782 0.895927,0.180371 1.038598,0.433046 0.130278,0.230722 0.313926,0.219702 0.887122,-0.05324 1.26524,-0.602469 2.010579,-0.506008 2.564381,0.33188 0.07062,0.106852 0.170418,0.202367 0.221771,0.212254 0.05603,0.0108 0.233931,-0.124679 0.444878,-0.338764 0.417674,-0.423887 0.753076,-0.565923 1.330968,-0.56364 0.486405,0.0019 0.936734,0.219306 1.183669,0.571381 0.167685,0.239081 0.168961,0.246468 0.162997,0.944796 -0.0057,0.669155 -0.155504,1.638522 -0.584904,3.785214 L 48.316756,42.63528 47.34192,42.5985 c -0.588835,-0.02222 -1.032528,-0.06428 -1.120537,-0.106254 -0.209081,-0.0997 -0.211171,-0.339127 -0.01042,-1.192858 0.331592,-1.410112 0.44695,-2.312095 0.343469,-2.68561 -0.05367,-0.193734 -0.302432,-0.307071 -0.496814,-0.226349 -0.338052,0.140385 -0.597818,0.808443 -0.923205,2.374268 -0.220821,1.062635 -0.25954,1.208056 -0.387551,1.455605 -0.149307,0.288729 -0.319672,0.339389 -1.280652,0.380825 -0.771401,0.03326 -0.866611,0.02763 -0.866611,-0.05124 0,-0.04873 0.08574,-0.459322 0.190526,-0.912416 0.320892,-1.387515 0.425408,-1.968111 0.459785,-2.554208 0.0392,-0.668221 0.01037,-0.815668 -0.176008,-0.900594 -0.262599,-0.119647 -0.469099,0.03237 -0.717556,0.528246 -0.302215,0.603157 -0.489021,1.489337 -0.704119,3.340229 l -0.06625,0.570077 -0.675056,-0.009 c -0.371279,-0.0049 -0.905991,-0.02405 -1.188246,-0.04243 z"
       id="path828" /><path
       style="fill:#ff6600;stroke-width:0.0556173"
       d="m 50.848104,42.506457 c -0.216538,-0.08722 -0.28375,-0.27405 -0.319945,-0.889341 -0.108598,-1.84617 -0.269026,-4.270775 -0.365392,-5.522331 -0.06075,-0.788955 -0.110451,-1.458449 -0.110451,-1.487762 0,-0.03265 0.571117,-0.0533 1.473856,-0.0533 h 1.473859 l 5.29e-4,1.904891 c 5.3e-4,1.692932 0.04582,2.627813 0.147286,3.032088 0.09395,0.374322 0.377719,-0.09438 1.137042,-1.878031 0.69592,-1.634728 1.122669,-2.46195 1.439809,-2.790978 0.240488,-0.249502 0.277307,-0.26797 0.534226,-0.26797 0.279066,0 0.523155,0.112392 0.523155,0.24089 0,0.07194 -0.874252,2.0266 -2.155944,4.82028 -0.428035,0.932979 -0.886193,1.934088 -1.01813,2.224688 -0.131934,0.290599 -0.247922,0.539115 -0.257752,0.552251 -0.02326,0.03108 -1.740635,0.165452 -2.102091,0.164476 -0.152947,-2.65e-4 -0.332941,-0.02286 -0.399983,-0.04985 z"
       id="path830" /><path
       style="fill:#ff6600;stroke-width:0.0556173"
       d="m 57.977772,42.554563 c -1.134665,-0.06095 -1.537049,-0.276762 -1.885582,-1.011295 -0.427635,-0.90124 -0.410003,-1.864373 0.05128,-2.801824 0.3824,-0.777126 0.97394,-1.245801 1.918634,-1.520129 0.574908,-0.166947 1.814732,-0.213183 2.349416,-0.08761 0.916868,0.21532 1.341834,0.658273 1.33995,1.396656 -0.0011,0.447643 -0.09102,0.924803 -0.206542,1.096473 -0.170217,0.25296 -0.392834,0.311946 -1.533212,0.406254 -1.451769,0.120063 -1.709891,0.17031 -1.936615,0.376997 -0.107284,0.0978 -0.125111,0.17023 -0.124931,0.507609 1.56e-4,0.291504 0.02822,0.439473 0.108257,0.570735 0.229446,0.376301 0.464981,0.365151 0.932717,-0.04415 0.458867,-0.401545 0.800563,-0.517279 1.535506,-0.520078 0.530342,-0.0021 0.611574,0.0104 0.680114,0.104029 0.09491,0.129638 0.06165,0.287954 -0.149222,0.710422 -0.174895,0.350388 -0.40418,0.554024 -0.775475,0.688721 -0.312296,0.113295 -1.422408,0.174572 -2.304299,0.127198 z m 1.5689,-3.301674 c 0.1934,-0.1934 0.194966,-0.198869 0.174257,-0.608968 -0.02101,-0.415843 -0.114985,-0.633433 -0.333002,-0.770956 -0.124621,-0.07861 -0.357182,-0.0033 -0.514836,0.166733 -0.210667,0.227195 -0.533805,0.896347 -0.533805,1.1054 0,0.247221 0.104092,0.299188 0.603446,0.301252 0.394171,0.0016 0.415766,-0.0053 0.60394,-0.193461 z"
       id="path832" /><path
       style="fill:#ff6600;stroke-width:0.0556173"
       d="m 62.677431,42.565358 c -0.478176,-0.03565 -0.723024,-0.117414 -0.723024,-0.241448 0,-0.03736 0.02556,-0.155363 0.05682,-0.262226 0.112929,-0.386127 0.347937,-1.44636 0.638373,-2.879997 0.420391,-2.075117 0.506101,-2.208641 1.390452,-2.166176 0.541821,0.02601 0.926613,0.178359 1.037455,0.410734 0.108143,0.226711 0.342529,0.235416 0.753459,0.02798 1.113166,-0.561922 2.206048,-0.546065 2.539577,0.03685 0.232312,0.406011 0.181374,1.614191 -0.161957,3.841491 -0.105548,0.684705 -0.191902,1.254085 -0.191902,1.265293 0,0.05954 -2.456778,-0.02806 -2.559011,-0.09124 -0.04431,-0.02739 0.02933,-0.385778 0.248452,-1.209122 0.383799,-1.442114 0.475189,-1.910564 0.475189,-2.435703 0,-0.810237 -0.255617,-0.955673 -0.7391,-0.420516 -0.328152,0.363225 -0.603041,1.42453 -0.786567,3.036803 -0.04875,0.428252 -0.101965,0.85998 -0.118261,0.959397 l -0.02963,0.180756 -0.678791,-0.0088 c -0.373335,-0.0048 -0.891527,-0.02468 -1.151538,-0.04406 z"
       id="path834" /><path
       style="fill:#ff6600;stroke-width:0.0556173"
       d="m 73.45473,42.553759 c -0.402346,-0.05359 -0.641807,-0.175374 -0.664916,-0.338145 -0.02413,-0.170003 -0.301064,-0.19522 -0.583838,-0.05317 -0.572926,0.287811 -1.30203,0.416933 -1.919097,0.339871 -0.778372,-0.09721 -0.83975,-0.242629 -0.807894,-1.914118 0.01855,-0.972487 0.0423,-1.24243 0.142004,-1.6129 0.243668,-0.905383 0.692537,-1.582819 1.239788,-1.871088 0.186277,-0.09813 0.333134,-0.127805 0.631986,-0.127717 0.454821,1.27e-4 0.811329,0.154998 1.288068,0.559535 0.291111,0.247023 0.461233,0.299778 0.561018,0.173977 0.08213,-0.103547 0.162149,-0.514242 0.316954,-1.626804 0.07662,-0.550611 0.17788,-1.130628 0.225029,-1.288928 0.159874,-0.536742 0.461621,-0.664501 1.710703,-0.724323 l 0.70912,-0.03396 v 0.257376 c 0,0.517646 -0.960742,5.537089 -1.336603,6.983142 -0.311219,1.197367 -0.556554,1.404567 -1.512322,1.277255 z M 72.185762,41.3593 c 0.616445,-0.364143 1.0589,-2.478286 0.649446,-3.103186 -0.312613,-0.47711 -0.846314,0.279587 -1.232942,1.748102 -0.05235,0.198831 -0.0984,0.557522 -0.102341,0.797091 -0.0065,0.395068 0.0051,0.445506 0.12414,0.542269 0.160819,0.130673 0.35777,0.136186 0.561697,0.01572 z"
       id="path836" /><path
       style="fill:#ff6600;stroke-width:0.0278085"
       d="m 30.089597,18.167495 c 0.01037,-0.04206 0.04791,-0.16246 0.08344,-0.267552 0.180102,-0.532622 0.08924,-0.761897 -0.381683,-0.963049 -0.36477,-0.155813 -0.362746,-0.218962 0.01164,-0.363342 0.346527,-0.133636 0.471588,-0.205266 0.655264,-0.375317 0.228383,-0.211444 0.326245,-0.417097 0.349817,-0.735129 0.01931,-0.26059 0.0345,-0.333703 0.06932,-0.333703 0.01275,0 0.110276,0.134522 0.216715,0.298942 0.106442,0.164418 0.258093,0.359119 0.337008,0.432668 0.191868,0.178827 0.489582,0.317863 0.750882,0.350674 0.112585,0.01413 0.216583,0.03759 0.231108,0.05211 0.02893,0.02893 -0.09868,0.144801 -0.159485,0.144801 -0.01947,0 -0.08983,0.06056 -0.156385,0.134575 -0.152133,0.169212 -0.241493,0.414346 -0.272833,0.748451 -0.03973,0.423526 -0.119274,0.511881 -0.378738,0.420687 -0.145105,-0.051 -0.180525,-0.05361 -0.329544,-0.02429 -0.211044,0.04152 -0.331901,0.102909 -0.627176,0.318574 -0.361233,0.263837 -0.431699,0.292229 -0.399354,0.160898 z"
       id="path838" /><path
       style="fill:#ff6600;stroke-width:0.0278085"
       d="m 36.495614,17.433289 c 0,-0.05421 0.02484,-0.216217 0.05518,-0.360013 0.07148,-0.338675 0.07335,-0.715367 0.0047,-0.936093 -0.07459,-0.239649 -0.198289,-0.40014 -0.479229,-0.62175 -0.363738,-0.286925 -0.377701,-0.341164 -0.09531,-0.370237 0.07661,-0.0079 0.248814,-0.02572 0.382688,-0.03965 0.298066,-0.031 0.496575,-0.120886 0.686596,-0.310909 0.277122,-0.277122 0.404522,-0.607288 0.38576,-0.999726 -0.01003,-0.209476 -0.02519,-0.269145 -0.114435,-0.449747 -0.05659,-0.114524 -0.102886,-0.222935 -0.102886,-0.240913 0,-0.05348 0.06462,-0.0377 0.20169,0.04922 0.230915,0.146442 0.366905,0.45529 0.409056,0.929013 0.03063,0.344239 0.109397,0.491898 0.320286,0.600427 0.147397,0.07585 0.218665,0.08069 0.821571,0.05579 0.238961,-0.0099 0.275,-0.0047 0.368816,0.05332 0.189711,0.117247 0.182282,0.143891 -0.07716,0.276738 -0.296873,0.152014 -0.464172,0.300466 -0.560501,0.497356 -0.103286,0.211111 -0.103391,0.487124 -2.65e-4,0.907272 0.08618,0.351385 0.09486,0.512874 0.02893,0.538176 -0.05306,0.02037 -0.262451,-0.07734 -0.608566,-0.283948 -0.544671,-0.325134 -0.708128,-0.276784 -1.22479,0.362288 -0.111287,0.137652 -0.247267,0.293402 -0.302178,0.346112 l -0.09983,0.09583 z"
       id="path840" /><path
       style="fill:#ff6600;stroke-width:0.0278085"
       d="m 46.200822,16.892875 c -0.03824,-0.02418 -0.107064,-0.09421 -0.152948,-0.155646 -0.199755,-0.267447 -0.721408,-0.696651 -0.907661,-0.746805 -0.163645,-0.04406 -0.277082,0.0056 -0.506976,0.22199 -0.278699,0.262319 -0.414734,0.346697 -0.698495,0.43325 l -0.247695,0.07555 -0.06462,-0.07983 c -0.11116,-0.137343 -0.107045,-0.179258 0.04535,-0.461947 0.266337,-0.494051 0.309607,-0.730329 0.181006,-0.988396 -0.08256,-0.165677 -0.290933,-0.367176 -0.815281,-0.788382 -0.205015,-0.164687 -0.345141,-0.295624 -0.326856,-0.305424 0.0176,-0.0094 0.27713,-0.02524 0.576731,-0.03511 0.617543,-0.02035 0.802838,-0.05623 1.015164,-0.196535 0.208547,-0.137811 0.294769,-0.291529 0.469222,-0.836536 0.08463,-0.264374 0.154403,-0.497485 0.155062,-0.518025 5.29e-4,-0.02053 0.119444,0.195765 0.263964,0.480677 0.236527,0.466291 0.280384,0.5345 0.439203,0.683069 0.163156,0.152625 0.324837,0.250606 0.533117,0.323078 0.04588,0.01595 0.364988,0.0362 0.709121,0.04498 l 0.625691,0.01595 -0.45748,0.361514 c -0.686125,0.542192 -0.786228,0.631015 -0.877282,0.778428 -0.07087,0.114744 -0.08346,0.163057 -0.0834,0.32004 5.5e-5,0.174776 0.01111,0.206459 0.202014,0.578948 l 0.201944,0.394054 -0.03582,0.215652 c -0.03289,0.197953 -0.04148,0.216217 -0.104685,0.222538 -0.03787,0.0038 -0.100145,-0.01288 -0.138382,-0.03707 z"
       id="path842" /><path
       style="fill:#ff6600;stroke-width:0.0525517"
       d="m 376.31237,442.64387 c -0.56884,-0.96157 -1.99597,-2.29499 -2.93538,-2.74263 -1.01338,-0.48289 -1.7639,-0.23149 -3.50265,1.17327 -1.5994,1.29219 -1.70086,1.08916 -0.96166,-1.92423 0.15929,-0.64936 0.31751,-1.43148 0.3516,-1.73805 0.1176,-1.0576 -0.0915,-1.80563 -0.67777,-2.4252 -0.40244,-0.42528 -0.90715,-0.74956 -1.97478,-1.26882 l -0.88249,-0.42922 0.0304,-0.28904 c 0.0752,-0.71385 0.21946,-0.88828 0.84279,-1.01895 l 0.42205,-0.0885 0.34299,0.15552 c 0.57535,0.26087 0.95188,0.33574 1.5456,0.30732 0.58414,-0.028 1.01138,-0.15737 1.5367,-0.46546 0.41518,-0.24349 1.12574,-0.96484 1.5725,-1.59637 0.45122,-0.63783 0.81952,-1.05448 1.02695,-1.16174 0.13933,-0.072 0.1675,-0.0718 0.28147,0.003 0.0697,0.0456 0.16276,0.1381 0.20689,0.20546 0.11875,0.18123 0.3554,0.85518 0.62894,1.79113 0.13331,0.45615 0.29804,0.93905 0.36607,1.07311 0.33375,0.65779 0.90529,1.2107 1.53102,1.48114 0.60914,0.26327 0.97881,0.31955 2.3876,0.36353 1.84457,0.0576 2.01646,0.13867 1.45836,0.68804 -0.15172,0.14934 -0.61877,0.52212 -1.0379,0.82839 -1.44738,1.05765 -1.78793,1.38909 -2.07775,2.02214 -0.33102,0.72303 -0.16839,1.82615 0.47577,3.22717 l 0.17416,0.3788 -0.12639,0.61968 c -0.0695,0.34083 -0.12663,0.68389 -0.12694,0.76236 -6.7e-4,0.17234 -0.10071,0.23325 -0.46184,0.28115 l -0.26926,0.0357 z"
       id="path844"
       transform="matrix(0.26458333,0,0,0.26458333,-46.248941,-99.73411)"
       clip-path="url(#clipPath1271)" /><path
       style="fill:#ff6600;stroke-width:0.0393274"
       d="m 59.93485,18.181131 c -0.04326,-0.02458 -0.150982,-0.103447 -0.239382,-0.175257 -0.336311,-0.273201 -0.727006,-0.338585 -1.233532,-0.206431 -0.431305,0.112528 -0.47222,0.09154 -0.351877,-0.180525 0.141173,-0.319143 0.05711,-0.697672 -0.240059,-1.080984 -0.05903,-0.07614 -0.117878,-0.169138 -0.130771,-0.206661 -0.03002,-0.08736 0.07957,-0.148077 0.267261,-0.148077 0.333082,0 0.677394,-0.270602 0.913225,-0.717724 0.07701,-0.146003 0.154837,-0.265459 0.172953,-0.265459 0.03426,0 0.08971,0.181967 0.137827,0.452263 0.06474,0.363709 0.30825,0.728633 0.555001,0.831733 0.06994,0.02922 0.19514,0.05313 0.27822,0.05313 0.08308,0 0.182168,0.02275 0.220191,0.05055 0.06395,0.04676 0.05709,0.06568 -0.09127,0.252018 -0.265202,0.333079 -0.34196,0.681824 -0.224451,1.019781 0.125746,0.361654 0.120817,0.409231 -0.03334,0.321638 z"
       id="path846" /><path
       style="fill:#ff6600;stroke-width:0.0278085"
       d="m 51.693024,25.067997 c -0.07647,-0.0052 -0.376806,-0.02307 -0.667406,-0.03966 -1.429007,-0.08154 -3.102774,-0.266949 -4.148744,-0.459576 -0.446304,-0.08219 -1.557596,-0.351793 -1.844013,-0.44736 -0.19717,-0.06579 -0.305895,-0.129696 -0.305895,-0.179806 0,-0.03377 0.221908,-0.156853 0.479295,-0.265848 0.479721,-0.203147 1.021643,-0.271481 2.134714,-0.269179 1.850003,0.0038 4.022968,0.296632 5.200213,0.700728 0.731226,0.250994 1.545741,0.71139 1.494555,0.84478 -0.03437,0.08956 -0.260136,0.11103 -1.244278,0.118322 -0.527669,0.0039 -1.021966,0.0028 -1.098441,-0.0024 z"
       id="path848" /><path
       style="fill:#ff6600;stroke-width:0.0556173"
       d="m 43.656334,61.477799 c -1.755954,-0.710721 -2.652106,-1.136838 -3.921016,-1.864432 -3.394853,-1.946613 -7.155233,-4.958492 -9.309917,-7.456786 -0.585378,-0.678725 -1.029243,-1.251723 -0.968619,-1.250421 0.06434,0.0013 0.66674,0.535247 1.880333,1.666396 2.490549,2.321364 4.529622,4.004429 5.867617,4.843174 2.016355,1.263981 4.9624,2.734027 6.64804,3.317298 0.570082,0.19726 0.650057,0.210699 1.221801,0.205264 0.492241,-0.0047 0.709601,-0.03516 1.112345,-0.155951 3.138265,-0.941276 8.465801,-4.321235 11.968678,-7.593314 1.661607,-1.552125 2.1545,-2.00008 2.176505,-1.978075 0.06947,0.06947 -1.329838,1.63358 -2.388963,2.670307 -2.330555,2.281267 -5.193299,4.347086 -8.419187,6.075466 -0.910703,0.487942 -4.27614,2.130576 -4.348742,2.122575 -0.02477,-0.0027 -0.708255,-0.273405 -1.518875,-0.601501 z"
       id="path850" /><path
       style="fill:#ff6600;stroke-width:0.297277"
       d="m 441.90294,454.09132 c 0,-10.13716 -0.0453,-18.4312 -0.10074,-18.4312 -0.0554,0 -4.50342,-1.41063 -9.88448,-3.13473 -17.23159,-5.52104 -26.89313,-8.17868 -38.17372,-10.50059 -18.10105,-3.72579 -27.20823,-4.56837 -49.34806,-4.56562 -25.03362,0.003 -36.30651,1.25603 -58.41502,6.49253 -14.01012,3.31836 -22.87494,5.95472 -34.9643,10.39823 l -2.26377,0.83207 -0.34576,3.73206 c -1.07491,11.60213 -1.14448,20.76908 -0.19979,26.32515 0.2502,1.47153 0.45725,2.84272 0.4601,3.0471 0.004,0.28093 -1.07841,0.3716 -4.43575,0.3716 h -4.44095 l -0.16673,-1.26343 c -0.57716,-4.37339 -1.05765,-12.4014 -1.05062,-17.55374 0.007,-5.09554 0.91856,-20.56907 1.2291,-20.86246 0.22218,-0.20991 22.71435,-7.36326 27.13262,-8.62919 16.59514,-4.75485 30.99668,-7.47233 53.82731,-10.15686 6.26883,-0.73712 7.71493,-0.802 17.39073,-0.78027 17.19937,0.0386 37.76238,1.23352 48.15895,2.79845 15.95628,2.40179 33.3663,6.75677 54.17882,13.55242 l 10.62766,3.47012 v 21.64478 21.64478 h -4.6078 -4.6078 z m 6.95535,11.46157 c 0.88435,-3.52353 1.30031,-26.91393 0.53754,-30.22725 -0.77716,-3.37582 -2.62769,-5.21066 -6.87313,-6.81486 -2.81725,-1.06453 -14.13982,-4.68799 -19.88964,-6.3651 -13.28625,-3.87535 -26.9729,-6.71091 -30.67273,-6.35469 -1.02398,0.0986 -1.02952,0.10642 -0.34979,0.49391 0.37988,0.21655 6.33286,1.7952 13.22885,3.50812 19.84956,4.9305 31.13169,8.34444 37.24147,11.26917 4.41226,2.11212 4.50525,2.42268 4.89301,16.34039 0.29562,10.6109 0.68063,17.48225 1.02856,18.35688 0.29092,0.73132 0.64171,0.64666 0.85586,-0.20657 z"
       id="path852"
       transform="matrix(0.26458333,0,0,0.26458333,-46.248941,-99.73411)"
       clip-path="url(#clipPath1281)" /><path
       d="m 99.087355,117.32344 c 0.02097,0.0124 0.05172,0.0317 0.11118,0.0764 0.0067,0.005 0.01363,0.0103 0.021,0.0159 0.01689,0.0129 0.06969,0.0536 0.109103,0.082 0.08537,0.062 0.201931,0.11715 0.343633,0.13557 0.08689,0.012 0.173977,0.013 0.257139,0.01 0.04195,-0.002 0.08945,-0.0111 0.13553,-0.0338 0.0244,-0.012 0.0492,-0.0282 0.0719,-0.0493 0.0241,-0.0224 0.0447,-0.0493 0.0603,-0.0802 -6.6e-4,0.001 3.8e-4,-6.3e-4 9.5e-4,-0.002 a 0.20856466,0.20856466 90 0 0 -0.36862,-0.19524 c -5.76e-4,0.001 -0.0016,0.003 -0.0029,0.005 0.0055,-0.011 0.01525,-0.0236 0.02602,-0.0336 0.01006,-0.009 0.01996,-0.0156 0.02809,-0.0196 0.01467,-0.007 0.02577,-0.009 0.03138,-0.009 -0.06836,0.003 -0.128807,0.001 -0.184349,-0.006 -0.06626,-0.009 -0.118157,-0.0337 -0.154795,-0.0603 -0.03399,-0.0244 -0.07847,-0.0588 -0.100646,-0.0757 -0.0078,-0.006 -0.01538,-0.0117 -0.02294,-0.0174 -0.07056,-0.0531 -0.114226,-0.0812 -0.149934,-0.10229 a 0.20856466,0.20856466 90 0 0 -0.212002,0.35924 z"
       id="path-1"
       inkscape:path-effect="#path-effect909;#path-effect911"
       inkscape:original-d="m 99.193356,117.14382 c 0.260726,0.15836 0.291085,0.29199 0.653503,0.29199 0.07959,0 0.137173,0.004 0.166851,-0.0556"
       style="fill:#000000;fill-opacity:1;fill-rule:nonzero;stroke:none"
       clip-path="url(#clipPath1291)"
       transform="translate(-46.248941,-99.73411)" /></g></svg>
